<?xml version="1.0" encoding="UTF-8"?>
<svg xmlns="http://www.w3.org/2000/svg" xmlns:xlink="http://www.w3.org/1999/xlink" width="106" height="106" viewBox="0 0 106 106" version="1.1">
<g id="surface5777">
<path style="fill:none;stroke-width:4;stroke-linecap:round;stroke-linejoin:round;stroke:rgb(0%,0%,0%);stroke-opacity:1;stroke-miterlimit:10;" d="M 50 21.816406 C 54.902344 17.148438 61.414062 14.546875 68.183594 14.546875 C 81.828125 14.546875 93.183594 25.164062 93.183594 38.636719 C 93.183594 63.84375 71.203125 81.074219 50 95.453125 C 28.796875 81.074219 6.816406 63.84375 6.816406 38.636719 C 6.816406 25.164062 18.171875 14.546875 31.816406 14.546875 C 38.585938 14.546875 45.097656 17.148438 50 21.816406 " transform="matrix(1,0,0,1,3,3)"/>
<path style="fill:none;stroke-width:4;stroke-linecap:round;stroke-linejoin:round;stroke:rgb(100%,0%,0%);stroke-opacity:1;stroke-miterlimit:10;" d="M 50 21.816406 C 52.449219 17.148438 55.707031 14.546875 59.089844 14.546875 C 65.914062 14.546875 71.589844 25.164062 71.589844 38.636719 C 71.589844 63.84375 60.601562 81.074219 50 95.453125 C 39.398438 81.074219 28.410156 63.84375 28.410156 38.636719 C 28.410156 25.164062 34.085938 14.546875 40.910156 14.546875 C 44.292969 14.546875 47.550781 17.148438 50 21.816406 " transform="matrix(1,0,0,1,3,3)"/>
</g>
</svg>
