<?xml version="1.0" encoding="UTF-8"?>
<svg xmlns="http://www.w3.org/2000/svg" xmlns:xlink="http://www.w3.org/1999/xlink" width="206" height="106" viewBox="0 0 206 106" version="1.1">
<g id="surface5459">
<path style="fill:none;stroke-width:4;stroke-linecap:round;stroke-linejoin:round;stroke:rgb(100%,0%,0%);stroke-opacity:1;stroke-miterlimit:10;" d="M 95.453125 50 C 95.453125 37.945312 90.664062 26.382812 82.140625 17.859375 C 73.617188 9.335938 62.054688 4.546875 50 4.546875 C 37.945312 4.546875 26.382812 9.335938 17.859375 17.859375 C 9.335938 26.382812 4.546875 37.945312 4.546875 50 C 4.546875 62.054688 9.335938 73.617188 17.859375 82.140625 C 26.382812 90.664062 37.945312 95.453125 50 95.453125 C 62.054688 95.453125 73.617188 90.664062 82.140625 82.140625 C 90.664062 73.617188 95.453125 62.054688 95.453125 50 " transform="matrix(1,0,0,1,3,3)"/>
<path style=" stroke:none;fill-rule:nonzero;fill:rgb(100%,64.705882%,0%);fill-opacity:1;" d="M 98.453125 53 C 98.453125 40.945312 93.664062 29.382812 85.140625 20.859375 C 76.617188 12.335938 65.054688 7.546875 53 7.546875 C 40.945312 7.546875 29.382812 12.335938 20.859375 20.859375 C 12.335938 29.382812 7.546875 40.945312 7.546875 53 C 7.546875 65.054688 12.335938 76.617188 20.859375 85.140625 C 29.382812 93.664062 40.945312 98.453125 53 98.453125 C 65.054688 98.453125 76.617188 93.664062 85.140625 85.140625 C 93.664062 76.617188 98.453125 65.054688 98.453125 53 Z M 98.453125 53 "/>
<path style="fill:none;stroke-width:4;stroke-linecap:round;stroke-linejoin:round;stroke:rgb(100%,0%,0%);stroke-opacity:1;stroke-miterlimit:10;" d="M 195.453125 50 C 195.453125 37.945312 190.664062 26.382812 182.140625 17.859375 C 173.617188 9.335938 162.054688 4.546875 150 4.546875 C 137.945312 4.546875 126.382812 9.335938 117.859375 17.859375 C 109.335938 26.382812 104.546875 37.945312 104.546875 50 C 104.546875 62.054688 109.335938 73.617188 117.859375 82.140625 C 126.382812 90.664062 137.945312 95.453125 150 95.453125 C 162.054688 95.453125 173.617188 90.664062 182.140625 82.140625 C 190.664062 73.617188 195.453125 62.054688 195.453125 50 " transform="matrix(1,0,0,1,3,3)"/>
<path style=" stroke:none;fill-rule:nonzero;fill:rgb(0%,0%,0%);fill-opacity:1;" d="M 198.453125 53 C 198.453125 40.945312 193.664062 29.382812 185.140625 20.859375 C 176.617188 12.335938 165.054688 7.546875 153 7.546875 C 140.945312 7.546875 129.382812 12.335938 120.859375 20.859375 C 112.335938 29.382812 107.546875 40.945312 107.546875 53 C 107.546875 65.054688 112.335938 76.617188 120.859375 85.140625 C 129.382812 93.664062 140.945312 98.453125 153 98.453125 C 165.054688 98.453125 176.617188 93.664062 185.140625 85.140625 C 193.664062 76.617188 198.453125 65.054688 198.453125 53 Z M 198.453125 53 "/>
</g>
</svg>
