<?xml version="1.0" encoding="UTF-8"?>
<svg xmlns="http://www.w3.org/2000/svg" xmlns:xlink="http://www.w3.org/1999/xlink" width="406" height="106" viewBox="0 0 406 106" version="1.1">
<g id="surface5860">
<path style=" stroke:none;fill-rule:nonzero;fill:rgb(0%,0%,0%);fill-opacity:1;" d="M 98.453125 53 C 98.453125 40.945312 93.664062 29.382812 85.140625 20.859375 C 76.617188 12.335938 65.054688 7.546875 53 7.546875 C 40.945312 7.546875 29.382812 12.335938 20.859375 20.859375 C 12.335938 29.382812 7.546875 40.945312 7.546875 53 C 7.546875 65.054688 12.335938 76.617188 20.859375 85.140625 C 29.382812 93.664062 40.945312 98.453125 53 98.453125 C 65.054688 98.453125 76.617188 93.664062 85.140625 85.140625 C 93.664062 76.617188 98.453125 65.054688 98.453125 53 Z M 75.726562 53 C 75.726562 46.972656 73.332031 41.191406 69.070312 36.929688 C 64.808594 32.667969 59.027344 30.273438 53 30.273438 C 46.972656 30.273438 41.191406 32.667969 36.929688 36.929688 C 32.667969 41.191406 30.273438 46.972656 30.273438 53 C 30.273438 59.027344 32.667969 64.808594 36.929688 69.070312 C 41.191406 73.332031 46.972656 75.726562 53 75.726562 C 59.027344 75.726562 64.808594 73.332031 69.070312 69.070312 C 73.332031 64.808594 75.726562 59.027344 75.726562 53 Z M 75.726562 53 "/>
<path style=" stroke:none;fill-rule:nonzero;fill:rgb(0%,0%,0%);fill-opacity:1;" d="M 198.453125 53 C 198.453125 40.945312 193.664062 29.382812 185.140625 20.859375 C 176.617188 12.335938 165.054688 7.546875 153 7.546875 C 140.945312 7.546875 129.382812 12.335938 120.859375 20.859375 C 112.335938 29.382812 107.546875 40.945312 107.546875 53 C 107.546875 65.054688 112.335938 76.617188 120.859375 85.140625 C 129.382812 93.664062 140.945312 98.453125 153 98.453125 C 165.054688 98.453125 176.617188 93.664062 185.140625 85.140625 C 193.664062 76.617188 198.453125 65.054688 198.453125 53 Z M 175.726562 53 C 175.726562 59.027344 173.332031 64.808594 169.070312 69.070312 C 164.808594 73.332031 159.027344 75.726562 153 75.726562 C 146.972656 75.726562 141.191406 73.332031 136.929688 69.070312 C 132.667969 64.808594 130.273438 59.027344 130.273438 53 C 130.273438 46.972656 132.667969 41.191406 136.929688 36.929688 C 141.191406 32.667969 146.972656 30.273438 153 30.273438 C 159.027344 30.273438 164.808594 32.667969 169.070312 36.929688 C 173.332031 41.191406 175.726562 46.972656 175.726562 53 Z M 175.726562 53 "/>
<path style=" stroke:none;fill-rule:nonzero;fill:rgb(0%,0%,0%);fill-opacity:1;" d="M 298.453125 53 C 298.453125 65.054688 293.664062 76.617188 285.140625 85.140625 C 276.617188 93.664062 265.054688 98.453125 253 98.453125 C 240.945312 98.453125 229.382812 93.664062 220.859375 85.140625 C 212.335938 76.617188 207.546875 65.054688 207.546875 53 C 207.546875 40.945312 212.335938 29.382812 220.859375 20.859375 C 229.382812 12.335938 240.945312 7.546875 253 7.546875 C 265.054688 7.546875 276.617188 12.335938 285.140625 20.859375 C 293.664062 29.382812 298.453125 40.945312 298.453125 53 Z M 275.726562 53 C 275.726562 46.972656 273.332031 41.191406 269.070312 36.929688 C 264.808594 32.667969 259.027344 30.273438 253 30.273438 C 246.972656 30.273438 241.191406 32.667969 236.929688 36.929688 C 232.667969 41.191406 230.273438 46.972656 230.273438 53 C 230.273438 59.027344 232.667969 64.808594 236.929688 69.070312 C 241.191406 73.332031 246.972656 75.726562 253 75.726562 C 259.027344 75.726562 264.808594 73.332031 269.070312 69.070312 C 273.332031 64.808594 275.726562 59.027344 275.726562 53 Z M 275.726562 53 "/>
<path style=" stroke:none;fill-rule:nonzero;fill:rgb(0%,0%,0%);fill-opacity:1;" d="M 398.453125 53 C 398.453125 65.054688 393.664062 76.617188 385.140625 85.140625 C 376.617188 93.664062 365.054688 98.453125 353 98.453125 C 340.945312 98.453125 329.382812 93.664062 320.859375 85.140625 C 312.335938 76.617188 307.546875 65.054688 307.546875 53 C 307.546875 40.945312 312.335938 29.382812 320.859375 20.859375 C 329.382812 12.335938 340.945312 7.546875 353 7.546875 C 365.054688 7.546875 376.617188 12.335938 385.140625 20.859375 C 393.664062 29.382812 398.453125 40.945312 398.453125 53 Z M 375.726562 53 C 375.726562 59.027344 373.332031 64.808594 369.070312 69.070312 C 364.808594 73.332031 359.027344 75.726562 353 75.726562 C 346.972656 75.726562 341.191406 73.332031 336.929688 69.070312 C 332.667969 64.808594 330.273438 59.027344 330.273438 53 C 330.273438 46.972656 332.667969 41.191406 336.929688 36.929688 C 341.191406 32.667969 346.972656 30.273438 353 30.273438 C 359.027344 30.273438 364.808594 32.667969 369.070312 36.929688 C 373.332031 41.191406 375.726562 46.972656 375.726562 53 Z M 375.726562 53 "/>
</g>
</svg>
