<?xml version="1.0" encoding="UTF-8"?>
<svg xmlns="http://www.w3.org/2000/svg" xmlns:xlink="http://www.w3.org/1999/xlink" width="106" height="106" viewBox="0 0 106 106" version="1.1">
<g id="surface5807">
<path style="fill:none;stroke-width:4;stroke-linecap:round;stroke-linejoin:round;stroke:rgb(0%,0%,0%);stroke-opacity:1;stroke-miterlimit:10;" d="M 50 13.183594 C 52.449219 10.847656 55.707031 9.546875 59.089844 9.546875 C 65.914062 9.546875 71.589844 14.855469 71.589844 21.589844 C 71.589844 34.195312 60.601562 42.808594 50 50 C 39.398438 42.808594 28.410156 34.195312 28.410156 21.589844 C 28.410156 14.855469 34.085938 9.546875 40.910156 9.546875 C 44.292969 9.546875 47.550781 10.847656 50 13.183594 " transform="matrix(1,0,0,1,3,3)"/>
<path style="fill:none;stroke-width:4;stroke-linecap:round;stroke-linejoin:round;stroke:rgb(100%,0%,0%);stroke-opacity:1;stroke-miterlimit:10;" d="M 50 86.816406 C 47.550781 89.152344 44.292969 90.453125 40.910156 90.453125 C 34.085938 90.453125 28.410156 85.144531 28.410156 78.410156 C 28.410156 65.804688 39.398438 57.191406 50 50 C 60.601562 57.191406 71.589844 65.804688 71.589844 78.410156 C 71.589844 85.144531 65.914062 90.453125 59.089844 90.453125 C 55.707031 90.453125 52.449219 89.152344 50 86.816406 " transform="matrix(1,0,0,1,3,3)"/>
</g>
</svg>
