<?xml version="1.0" encoding="UTF-8"?>
<svg xmlns="http://www.w3.org/2000/svg" xmlns:xlink="http://www.w3.org/1999/xlink" width="106" height="106" viewBox="0 0 106 106" version="1.1">
<g id="surface5795">
<path style="fill:none;stroke-width:4;stroke-linecap:round;stroke-linejoin:round;stroke:rgb(0%,0%,0%);stroke-opacity:1;stroke-miterlimit:10;" d="M 50 35.910156 C 52.449219 33.574219 55.707031 32.273438 59.089844 32.273438 C 65.914062 32.273438 71.589844 37.582031 71.589844 44.316406 C 71.589844 56.921875 60.601562 65.535156 50 72.726562 C 39.398438 65.535156 28.410156 56.921875 28.410156 44.316406 C 28.410156 37.582031 34.085938 32.273438 40.910156 32.273438 C 44.292969 32.273438 47.550781 33.574219 50 35.910156 " transform="matrix(1,0,0,1,3,3)"/>
<path style="fill:none;stroke-width:4;stroke-linecap:round;stroke-linejoin:round;stroke:rgb(100%,0%,0%);stroke-opacity:1;stroke-miterlimit:10;" d="M 35.910156 50 C 33.574219 47.550781 32.273438 44.292969 32.273438 40.910156 C 32.273438 34.085938 37.582031 28.410156 44.316406 28.410156 C 56.921875 28.410156 65.535156 39.398438 72.726562 50 C 65.535156 60.601562 56.921875 71.589844 44.316406 71.589844 C 37.582031 71.589844 32.273438 65.914062 32.273438 59.089844 C 32.273438 55.707031 33.574219 52.449219 35.910156 50 " transform="matrix(1,0,0,1,3,3)"/>
<path style="fill:none;stroke-width:4;stroke-linecap:round;stroke-linejoin:round;stroke:rgb(0%,0%,100%);stroke-opacity:1;stroke-miterlimit:10;" d="M 35.910156 35.910156 C 36.027344 31.125 37.980469 26.566406 41.363281 23.183594 C 48.1875 16.359375 59.171875 15.992188 65.910156 22.726562 C 78.511719 35.332031 76.136719 54.933594 72.726562 72.726562 C 54.933594 76.136719 35.332031 78.511719 22.726562 65.910156 C 15.992188 59.171875 16.359375 48.1875 23.183594 41.363281 C 26.566406 37.980469 31.125 36.027344 35.910156 35.910156 " transform="matrix(1,0,0,1,3,3)"/>
</g>
</svg>
