<?xml version="1.0" encoding="UTF-8"?>
<svg xmlns="http://www.w3.org/2000/svg" xmlns:xlink="http://www.w3.org/1999/xlink" width="126" height="126" viewBox="0 0 126 126" version="1.1">
<g id="surface5681">
<path style="fill:none;stroke-width:1;stroke-linecap:round;stroke-linejoin:round;stroke:rgb(0%,0%,0%);stroke-opacity:1;stroke-miterlimit:10;" d="M 24 96 C 50.507812 109.304688 82.777344 98.546875 96 72 C 108.5 46.894531 93.199219 19.972656 72 24 C 47.882812 28.582031 46.023438 64.160156 72 72 C 75.914062 73.179688 80.085938 73.179688 84 72 " transform="matrix(1,0,0,1,3,3)"/>
<path style="fill:none;stroke-width:2;stroke-linecap:round;stroke-linejoin:round;stroke:rgb(0%,0%,100%);stroke-opacity:1;stroke-miterlimit:10;" d="M 24 72 C -0.191406 53.769531 18.902344 15.582031 48 24 C 78.914062 32.941406 61.335938 90.902344 96 96 C 110.019531 98.0625 122.0625 86.019531 120 72 " transform="matrix(1,0,0,1,3,3)"/>
<path style="fill:none;stroke-width:4;stroke-linecap:round;stroke-linejoin:round;stroke:rgb(100%,0%,0%);stroke-opacity:1;stroke-miterlimit:10;" d="M 82.335938 89.296875 L 82.335938 89.296875 " transform="matrix(1,0,0,1,3,3)"/>
<path style="fill:none;stroke-width:4;stroke-linecap:round;stroke-linejoin:round;stroke:rgb(100%,0%,0%);stroke-opacity:1;stroke-miterlimit:10;" d="M 59.132812 31.167969 L 59.132812 31.167969 " transform="matrix(1,0,0,1,3,3)"/>
<path style="fill:none;stroke-width:4;stroke-linecap:round;stroke-linejoin:round;stroke:rgb(100%,0%,0%);stroke-opacity:1;stroke-miterlimit:10;" d="M 73.433594 72.378906 L 73.433594 72.378906 " transform="matrix(1,0,0,1,3,3)"/>
</g>
</svg>
