<?xml version="1.0" encoding="UTF-8"?>
<svg xmlns="http://www.w3.org/2000/svg" xmlns:xlink="http://www.w3.org/1999/xlink" width="206" height="106" viewBox="0 0 206 106" version="1.1">
<g id="surface5866">
<path style=" stroke:none;fill-rule:nonzero;fill:rgb(0%,0%,0%);fill-opacity:1;" d="M 87.089844 53 C 87.089844 43.957031 83.5 35.289062 77.105469 28.894531 C 70.710938 22.5 62.042969 18.910156 53 18.910156 C 43.957031 18.910156 35.289062 22.5 28.894531 28.894531 C 22.5 35.289062 18.910156 43.957031 18.910156 53 C 18.910156 62.042969 22.5 70.710938 28.894531 77.105469 C 35.289062 83.5 43.957031 87.089844 53 87.089844 C 62.042969 87.089844 70.710938 83.5 77.105469 77.105469 C 83.5 70.710938 87.089844 62.042969 87.089844 53 Z M 75.726562 53 C 75.726562 59.027344 73.332031 64.808594 69.070312 69.070312 C 64.808594 73.332031 59.027344 75.726562 53 75.726562 C 46.972656 75.726562 41.191406 73.332031 36.929688 69.070312 C 32.667969 64.808594 30.273438 59.027344 30.273438 53 C 30.273438 46.972656 32.667969 41.191406 36.929688 36.929688 C 41.191406 32.667969 46.972656 30.273438 53 30.273438 C 59.027344 30.273438 64.808594 32.667969 69.070312 36.929688 C 73.332031 41.191406 75.726562 46.972656 75.726562 53 Z M 64.363281 53 C 64.363281 49.984375 63.167969 47.097656 61.035156 44.964844 C 58.902344 42.832031 56.015625 41.636719 53 41.636719 C 49.984375 41.636719 47.097656 42.832031 44.964844 44.964844 C 42.832031 47.097656 41.636719 49.984375 41.636719 53 C 41.636719 56.015625 42.832031 58.902344 44.964844 61.035156 C 47.097656 63.167969 49.984375 64.363281 53 64.363281 C 56.015625 64.363281 58.902344 63.167969 61.035156 61.035156 C 63.167969 58.902344 64.363281 56.015625 64.363281 53 Z M 64.363281 53 "/>
<path style=" stroke:none;fill-rule:nonzero;fill:rgb(0%,0%,0%);fill-opacity:1;" d="M 187.089844 53 C 187.089844 62.042969 183.5 70.710938 177.105469 77.105469 C 170.710938 83.5 162.042969 87.089844 153 87.089844 C 143.957031 87.089844 135.289062 83.5 128.894531 77.105469 C 122.5 70.710938 118.910156 62.042969 118.910156 53 C 118.910156 43.957031 122.5 35.289062 128.894531 28.894531 C 135.289062 22.5 143.957031 18.910156 153 18.910156 C 162.042969 18.910156 170.710938 22.5 177.105469 28.894531 C 183.5 35.289062 187.089844 43.957031 187.089844 53 Z M 175.726562 53 C 175.726562 46.972656 173.332031 41.191406 169.070312 36.929688 C 164.808594 32.667969 159.027344 30.273438 153 30.273438 C 146.972656 30.273438 141.191406 32.667969 136.929688 36.929688 C 132.667969 41.191406 130.273438 46.972656 130.273438 53 C 130.273438 59.027344 132.667969 64.808594 136.929688 69.070312 C 141.191406 73.332031 146.972656 75.726562 153 75.726562 C 159.027344 75.726562 164.808594 73.332031 169.070312 69.070312 C 173.332031 64.808594 175.726562 59.027344 175.726562 53 Z M 164.363281 53 C 164.363281 56.015625 163.167969 58.902344 161.035156 61.035156 C 158.902344 63.167969 156.015625 64.363281 153 64.363281 C 149.984375 64.363281 147.097656 63.167969 144.964844 61.035156 C 142.832031 58.902344 141.636719 56.015625 141.636719 53 C 141.636719 49.984375 142.832031 47.097656 144.964844 44.964844 C 147.097656 42.832031 149.984375 41.636719 153 41.636719 C 156.015625 41.636719 158.902344 42.832031 161.035156 44.964844 C 163.167969 47.097656 164.363281 49.984375 164.363281 53 Z M 164.363281 53 "/>
</g>
</svg>
