<?xml version="1.0" encoding="UTF-8"?>
<svg xmlns="http://www.w3.org/2000/svg" xmlns:xlink="http://www.w3.org/1999/xlink" width="106" height="106" viewBox="0 0 106 106" version="1.1">
<defs>
<clipPath id="clip1">
  <rect x="0" y="0" width="12" height="12"/>
</clipPath>
<g id="surface5517" clip-path="url(#clip1)">
<path style="fill:none;stroke-width:1;stroke-linecap:butt;stroke-linejoin:miter;stroke:rgb(0%,0%,0%);stroke-opacity:1;stroke-miterlimit:10;" d="M -1 -13 L 13 1 M -1 -7 L 13 7 M -1 -1 L 13 13 M -1 5 L 13 19 M -1 11 L 13 25 M 13 -13 L -1 1 M 13 -7 L -1 7 M 13 -1 L -1 13 M 13 5 L -1 19 M 13 11 L -1 25 "/>
</g>
<pattern id="pattern0" patternUnits="userSpaceOnUse" width="12" height="12" patternTransform="matrix(1,0,0,1,3,3)">
<use xlink:href="#surface5517"/>
</pattern>
</defs>
<g id="surface5513">
<path style="fill:none;stroke-width:1;stroke-linecap:round;stroke-linejoin:round;stroke:rgb(0%,0%,0%);stroke-opacity:1;stroke-miterlimit:10;" d="M 95.453125 50 C 95.453125 37.945312 90.664062 26.382812 82.140625 17.859375 C 73.617188 9.335938 62.054688 4.546875 50 4.546875 C 37.945312 4.546875 26.382812 9.335938 17.859375 17.859375 C 9.335938 26.382812 4.546875 37.945312 4.546875 50 C 4.546875 62.054688 9.335938 73.617188 17.859375 82.140625 C 26.382812 90.664062 37.945312 95.453125 50 95.453125 C 62.054688 95.453125 73.617188 90.664062 82.140625 82.140625 C 90.664062 73.617188 95.453125 62.054688 95.453125 50 " transform="matrix(1,0,0,1,3,3)"/>
<path style=" stroke:none;fill-rule:nonzero;fill:url(#pattern0);" d="M 98.453125 53 C 98.453125 40.945312 93.664062 29.382812 85.140625 20.859375 C 76.617188 12.335938 65.054688 7.546875 53 7.546875 C 40.945312 7.546875 29.382812 12.335938 20.859375 20.859375 C 12.335938 29.382812 7.546875 40.945312 7.546875 53 C 7.546875 65.054688 12.335938 76.617188 20.859375 85.140625 C 29.382812 93.664062 40.945312 98.453125 53 98.453125 C 65.054688 98.453125 76.617188 93.664062 85.140625 85.140625 C 93.664062 76.617188 98.453125 65.054688 98.453125 53 Z M 98.453125 53 "/>
</g>
</svg>
