<?xml version="1.0" encoding="UTF-8"?>
<svg xmlns="http://www.w3.org/2000/svg" xmlns:xlink="http://www.w3.org/1999/xlink" width="246" height="126" viewBox="0 0 246 126" version="1.1">
<g id="surface5711">
<path style="fill:none;stroke-width:1;stroke-linecap:round;stroke-linejoin:round;stroke:rgb(0%,0%,0%);stroke-opacity:1;stroke-miterlimit:10;" d="M 60 41.398438 C 63.234375 38.320312 67.53125 36.601562 72 36.601562 C 81.003906 36.601562 88.5 43.609375 88.5 52.5 C 88.5 69.136719 73.992188 80.507812 60 90 C 46.007812 80.507812 31.5 69.136719 31.5 52.5 C 31.5 43.609375 38.996094 36.601562 48 36.601562 C 52.46875 36.601562 56.765625 38.320312 60 41.398438 " transform="matrix(1,0,0,1,3,3)"/>
<path style="fill:none;stroke-width:1;stroke-linecap:round;stroke-linejoin:round;stroke:rgb(0%,0%,0%);stroke-opacity:1;stroke-miterlimit:10;" d="M 180 90 C 200 90 220 90 240 90 C 230 90 220 90 210 90 C 200 90 190 90 180 90 C 170 90 160 90 150 90 C 140 90 130 90 120 90 C 140 90 160 90 180 90 " transform="matrix(1,0,0,1,3,3)"/>
<path style="fill:none;stroke-width:1;stroke-linecap:round;stroke-linejoin:round;stroke:rgb(12.156863%,0%,0%);stroke-opacity:1;stroke-miterlimit:10;" d="M 180 83.925781 C 197.90625 83.539062 215.941406 83.324219 234 83.324219 C 226.375 83.324219 218.5625 84.199219 209.8125 85.3125 C 201.0625 87.390625 190.5 88.8125 180 90 C 169.5 88.8125 158.9375 87.390625 150.1875 85.3125 C 141.4375 84.199219 133.625 83.324219 126 83.324219 C 144.058594 83.324219 162.09375 83.539062 180 83.925781 " transform="matrix(1,0,0,1,3,3)"/>
<path style="fill:none;stroke-width:1;stroke-linecap:round;stroke-linejoin:round;stroke:rgb(24.705882%,0%,0%);stroke-opacity:1;stroke-miterlimit:10;" d="M 180 77.851562 C 195.808594 77.078125 211.882812 76.648438 228 76.648438 C 222.75 76.648438 217.125 78.402344 209.625 80.625 C 202.125 84.785156 191 87.628906 180 90 C 169 87.628906 157.875 84.785156 150.375 80.625 C 142.875 78.402344 137.25 76.648438 132 76.648438 C 148.117188 76.648438 164.191406 77.078125 180 77.851562 " transform="matrix(1,0,0,1,3,3)"/>
<path style="fill:none;stroke-width:1;stroke-linecap:round;stroke-linejoin:round;stroke:rgb(37.254902%,0%,0%);stroke-opacity:1;stroke-miterlimit:10;" d="M 180 71.773438 C 193.714844 70.621094 207.824219 69.976562 222 69.976562 C 219.128906 69.976562 215.6875 72.601562 209.4375 75.9375 C 203.1875 82.175781 191.496094 86.441406 180 90 C 168.503906 86.441406 156.8125 82.175781 150.5625 75.9375 C 144.3125 72.601562 140.871094 69.976562 138 69.976562 C 152.175781 69.976562 166.285156 70.621094 180 71.773438 " transform="matrix(1,0,0,1,3,3)"/>
<path style="fill:none;stroke-width:1;stroke-linecap:round;stroke-linejoin:round;stroke:rgb(49.803922%,0%,0%);stroke-opacity:1;stroke-miterlimit:10;" d="M 180 65.699219 C 191.617188 64.160156 203.765625 63.300781 216 63.300781 C 215.503906 63.300781 214.25 66.804688 209.25 71.25 C 204.25 79.570312 191.996094 85.253906 180 90 C 168.003906 85.253906 155.75 79.570312 150.75 71.25 C 145.75 66.804688 144.496094 63.300781 144 63.300781 C 156.234375 63.300781 168.382812 64.160156 180 65.699219 " transform="matrix(1,0,0,1,3,3)"/>
<path style="fill:none;stroke-width:1;stroke-linecap:round;stroke-linejoin:round;stroke:rgb(62.352941%,0%,0%);stroke-opacity:1;stroke-miterlimit:10;" d="M 180 59.625 C 189.523438 57.699219 199.707031 56.625 210 56.625 C 211.878906 56.625 212.8125 61.003906 209.0625 66.5625 C 205.3125 76.960938 192.496094 84.066406 180 90 C 167.503906 84.066406 154.6875 76.960938 150.9375 66.5625 C 147.1875 61.003906 148.121094 56.625 150 56.625 C 160.292969 56.625 170.476562 57.699219 180 59.625 " transform="matrix(1,0,0,1,3,3)"/>
<path style="fill:none;stroke-width:1;stroke-linecap:round;stroke-linejoin:round;stroke:rgb(74.901961%,0%,0%);stroke-opacity:1;stroke-miterlimit:10;" d="M 180 53.550781 C 187.425781 51.238281 195.648438 49.949219 204 49.949219 C 208.253906 49.949219 211.375 55.207031 208.875 61.875 C 206.375 74.351562 192.996094 82.882812 180 90 C 167.003906 82.882812 153.625 74.351562 151.125 61.875 C 148.625 55.207031 151.746094 49.949219 156 49.949219 C 164.351562 49.949219 172.574219 51.238281 180 53.550781 " transform="matrix(1,0,0,1,3,3)"/>
<path style="fill:none;stroke-width:1;stroke-linecap:round;stroke-linejoin:round;stroke:rgb(87.45098%,0%,0%);stroke-opacity:1;stroke-miterlimit:10;" d="M 180 47.476562 C 185.332031 44.777344 191.589844 43.273438 198 43.273438 C 204.628906 43.273438 209.9375 49.40625 208.6875 57.1875 C 207.4375 71.746094 193.496094 81.695312 180 90 C 166.503906 81.695312 152.5625 71.746094 151.3125 57.1875 C 150.0625 49.40625 155.371094 43.273438 162 43.273438 C 168.410156 43.273438 174.667969 44.777344 180 47.476562 " transform="matrix(1,0,0,1,3,3)"/>
</g>
</svg>
