<?xml version="1.0" encoding="UTF-8"?>
<svg xmlns="http://www.w3.org/2000/svg" xmlns:xlink="http://www.w3.org/1999/xlink" width="106" height="106" viewBox="0 0 106 106" version="1.1">
<g id="surface5771">
<path style="fill:none;stroke-width:4;stroke-linecap:round;stroke-linejoin:round;stroke:rgb(0%,0%,0%);stroke-opacity:1;stroke-miterlimit:10;" d="M 50 21.816406 C 54.902344 17.148438 61.414062 14.546875 68.183594 14.546875 C 81.828125 14.546875 93.183594 25.164062 93.183594 38.636719 C 93.183594 63.84375 71.203125 81.074219 50 95.453125 C 28.796875 81.074219 6.816406 63.84375 6.816406 38.636719 C 6.816406 25.164062 18.171875 14.546875 31.816406 14.546875 C 38.585938 14.546875 45.097656 17.148438 50 21.816406 " transform="matrix(1,0,0,1,3,3)"/>
<path style="fill:none;stroke-width:4;stroke-linecap:round;stroke-linejoin:round;stroke:rgb(100%,0%,0%);stroke-opacity:1;stroke-miterlimit:10;" d="M 50 28.863281 C 53.675781 25.363281 58.558594 23.410156 63.636719 23.410156 C 73.871094 23.410156 82.386719 31.371094 82.386719 41.476562 C 82.386719 60.382812 65.902344 73.304688 50 84.089844 C 34.097656 73.304688 17.613281 60.382812 17.613281 41.476562 C 17.613281 31.371094 26.128906 23.410156 36.363281 23.410156 C 41.441406 23.410156 46.324219 25.363281 50 28.863281 " transform="matrix(1,0,0,1,3,3)"/>
<path style="fill:none;stroke-width:4;stroke-linecap:round;stroke-linejoin:round;stroke:rgb(0%,0%,100%);stroke-opacity:1;stroke-miterlimit:10;" d="M 50 35.910156 C 52.449219 33.574219 55.707031 32.273438 59.089844 32.273438 C 65.914062 32.273438 71.589844 37.582031 71.589844 44.316406 C 71.589844 56.921875 60.601562 65.535156 50 72.726562 C 39.398438 65.535156 28.410156 56.921875 28.410156 44.316406 C 28.410156 37.582031 34.085938 32.273438 40.910156 32.273438 C 44.292969 32.273438 47.550781 33.574219 50 35.910156 " transform="matrix(1,0,0,1,3,3)"/>
<path style="fill:none;stroke-width:4;stroke-linecap:round;stroke-linejoin:round;stroke:rgb(0%,100%,0%);stroke-opacity:1;stroke-miterlimit:10;" d="M 50 42.953125 C 51.226562 41.789062 52.851562 41.136719 54.546875 41.136719 C 57.957031 41.136719 60.796875 43.789062 60.796875 47.160156 C 60.796875 53.460938 55.300781 57.769531 50 61.363281 C 44.699219 57.769531 39.203125 53.460938 39.203125 47.160156 C 39.203125 43.789062 42.042969 41.136719 45.453125 41.136719 C 47.148438 41.136719 48.773438 41.789062 50 42.953125 " transform="matrix(1,0,0,1,3,3)"/>
</g>
</svg>
