<?xml version="1.0" encoding="UTF-8"?>
<svg xmlns="http://www.w3.org/2000/svg" xmlns:xlink="http://www.w3.org/1999/xlink" width="106" height="106" viewBox="0 0 106 106" version="1.1">
<g id="surface5831">
<path style="fill:none;stroke-width:4;stroke-linecap:round;stroke-linejoin:round;stroke:rgb(0%,0%,0%);stroke-opacity:1;stroke-miterlimit:10;" d="M 50 35.910156 C 52.449219 33.574219 55.707031 32.273438 59.089844 32.273438 C 65.914062 32.273438 71.589844 37.582031 71.589844 44.316406 C 71.589844 56.921875 60.601562 65.535156 50 72.726562 C 39.398438 65.535156 28.410156 56.921875 28.410156 44.316406 C 28.410156 37.582031 34.085938 32.273438 40.910156 32.273438 C 44.292969 32.273438 47.550781 33.574219 50 35.910156 " transform="matrix(1,0,0,1,3,3)"/>
<path style="fill:none;stroke-width:4;stroke-linecap:round;stroke-linejoin:round;stroke:rgb(100%,0%,0%);stroke-opacity:1;stroke-miterlimit:10;" d="M 72.726562 35.910156 C 75.179688 33.574219 78.433594 32.273438 81.816406 32.273438 C 88.640625 32.273438 94.316406 37.582031 94.316406 44.316406 C 94.316406 56.921875 83.328125 65.535156 72.726562 72.726562 C 62.125 65.535156 51.136719 56.921875 51.136719 44.316406 C 51.136719 37.582031 56.8125 32.273438 63.636719 32.273438 C 67.019531 32.273438 70.277344 33.574219 72.726562 35.910156 " transform="matrix(1,0,0,1,3,3)"/>
<path style="fill:none;stroke-width:4;stroke-linecap:round;stroke-linejoin:round;stroke:rgb(0%,0%,100%);stroke-opacity:1;stroke-miterlimit:10;" d="M 27.273438 35.910156 C 29.722656 33.574219 32.980469 32.273438 36.363281 32.273438 C 43.1875 32.273438 48.863281 37.582031 48.863281 44.316406 C 48.863281 56.921875 37.875 65.535156 27.273438 72.726562 C 16.671875 65.535156 5.683594 56.921875 5.683594 44.316406 C 5.683594 37.582031 11.359375 32.273438 18.183594 32.273438 C 21.566406 32.273438 24.820312 33.574219 27.273438 35.910156 " transform="matrix(1,0,0,1,3,3)"/>
</g>
</svg>
