<?xml version="1.0" encoding="UTF-8"?>
<svg xmlns="http://www.w3.org/2000/svg" xmlns:xlink="http://www.w3.org/1999/xlink" width="486" height="126" viewBox="0 0 486 126" version="1.1">
<g id="surface5717">
<path style="fill:none;stroke-width:1;stroke-linecap:round;stroke-linejoin:round;stroke:rgb(0%,0%,0%);stroke-opacity:1;stroke-miterlimit:10;" d="M 43.636719 76.363281 C 52.671875 85.402344 67.328125 85.402344 76.363281 76.363281 C 85.402344 67.328125 85.402344 52.671875 76.363281 43.636719 C 67.328125 34.597656 52.671875 34.597656 43.636719 43.636719 " transform="matrix(1,0,0,1,3,3)"/>
<path style="fill:none;stroke-width:1;stroke-linecap:round;stroke-linejoin:round;stroke:rgb(0%,0%,0%);stroke-opacity:1;stroke-miterlimit:10;" d="M 163.636719 76.363281 C 174.546875 76.363281 185.453125 76.363281 196.363281 76.363281 C 196.363281 65.453125 196.363281 54.546875 196.363281 43.636719 C 185.453125 43.636719 174.546875 43.636719 163.636719 43.636719 " transform="matrix(1,0,0,1,3,3)"/>
<path style="fill:none;stroke-width:1;stroke-linecap:round;stroke-linejoin:round;stroke:rgb(0%,0%,0%);stroke-opacity:1;stroke-miterlimit:10;" d="M 283.636719 76.363281 C 292.671875 85.402344 307.328125 85.402344 316.363281 76.363281 C 325.402344 67.328125 325.402344 52.671875 316.363281 43.636719 C 307.328125 34.597656 292.671875 34.597656 283.636719 43.636719 C 274.597656 52.671875 274.597656 67.328125 283.636719 76.363281 " transform="matrix(1,0,0,1,3,3)"/>
<path style="fill:none;stroke-width:1;stroke-linecap:round;stroke-linejoin:round;stroke:rgb(0%,0%,0%);stroke-opacity:1;stroke-miterlimit:10;" d="M 403.636719 76.363281 C 414.546875 76.363281 425.453125 76.363281 436.363281 76.363281 C 436.363281 65.453125 436.363281 54.546875 436.363281 43.636719 C 425.453125 43.636719 414.546875 43.636719 403.636719 43.636719 C 403.636719 54.546875 403.636719 65.453125 403.636719 76.363281 " transform="matrix(1,0,0,1,3,3)"/>
</g>
</svg>
