<?xml version="1.0" encoding="UTF-8"?>
<svg xmlns="http://www.w3.org/2000/svg" xmlns:xlink="http://www.w3.org/1999/xlink" width="56" height="56" viewBox="0 0 56 56" version="1.1">
<g id="surface5914">
<path style="fill:none;stroke-width:1;stroke-linecap:round;stroke-linejoin:round;stroke:rgb(0%,0%,0%);stroke-opacity:1;stroke-miterlimit:10;" d="M 37.5 25 C 37.5 21.683594 36.183594 18.503906 33.839844 16.160156 C 31.496094 13.816406 28.316406 12.5 25 12.5 C 21.683594 12.5 18.503906 13.816406 16.160156 16.160156 C 13.816406 18.503906 12.5 21.683594 12.5 25 C 12.5 28.316406 13.816406 31.496094 16.160156 33.839844 C 18.503906 36.183594 21.683594 37.5 25 37.5 C 28.316406 37.5 31.496094 36.183594 33.839844 33.839844 C 36.183594 31.496094 37.5 28.316406 37.5 25 " transform="matrix(1,0,0,1,3,3)"/>
<path style="fill:none;stroke-width:1;stroke-linecap:round;stroke-linejoin:round;stroke:rgb(0%,0%,0%);stroke-opacity:1;stroke-miterlimit:10;" d="M 25 7.5 C 25 13.332031 25 19.167969 25 25 C 30.832031 25 36.667969 25 42.5 25 C 36.667969 19.167969 30.832031 13.332031 25 7.5 " transform="matrix(1,0,0,1,3,3)"/>
</g>
</svg>
