<?xml version="1.0" encoding="UTF-8"?>
<svg xmlns="http://www.w3.org/2000/svg" xmlns:xlink="http://www.w3.org/1999/xlink" width="56" height="56" viewBox="0 0 56 56" version="1.1">
<g id="surface5423">
<path style="fill:none;stroke-width:2;stroke-linecap:round;stroke-linejoin:round;stroke:rgb(100%,0%,0%);stroke-opacity:1;stroke-miterlimit:10;" d="M 2.941406 47.058594 C 12.746094 47.058594 22.550781 47.058594 32.351562 47.058594 " transform="matrix(1,0,0,1,3,3)"/>
<path style="fill:none;stroke-width:2;stroke-linecap:round;stroke-linejoin:round;stroke:rgb(100%,0%,0%);stroke-opacity:1;stroke-miterlimit:10;" d="M 21.371094 51.605469 C 21.789062 50.105469 22.15625 48.585938 22.46875 47.058594 C 22.15625 45.53125 21.789062 44.011719 21.371094 42.511719 C 24.738281 44.65625 28.457031 46.195312 32.351562 47.058594 C 28.457031 47.921875 24.738281 49.460938 21.371094 51.605469 " transform="matrix(1,0,0,1,3,3)"/>
<path style=" stroke:none;fill-rule:nonzero;fill:rgb(100%,0%,0%);fill-opacity:1;" d="M 24.371094 54.605469 C 24.789062 53.105469 25.15625 51.585938 25.46875 50.058594 C 25.15625 48.53125 24.789062 47.011719 24.371094 45.511719 C 27.738281 47.65625 31.457031 49.195312 35.351562 50.058594 C 31.457031 50.921875 27.738281 52.460938 24.371094 54.605469 Z M 24.371094 54.605469 "/>
<path style="fill:none;stroke-width:2;stroke-linecap:round;stroke-linejoin:round;stroke:rgb(0%,100%,0%);stroke-opacity:1;stroke-miterlimit:10;" d="M 32.351562 47.058594 C 32.351562 32.351562 32.351562 17.648438 32.351562 2.941406 " transform="matrix(1,0,0,1,3,3)"/>
<path style="fill:none;stroke-width:2;stroke-linecap:round;stroke-linejoin:round;stroke:rgb(0%,100%,0%);stroke-opacity:1;stroke-miterlimit:10;" d="M 36.902344 13.921875 C 35.398438 13.503906 33.882812 13.136719 32.351562 12.824219 C 30.824219 13.136719 29.308594 13.503906 27.804688 13.921875 C 29.949219 10.554688 31.488281 6.839844 32.351562 2.941406 C 33.21875 6.839844 34.757812 10.554688 36.902344 13.921875 " transform="matrix(1,0,0,1,3,3)"/>
<path style=" stroke:none;fill-rule:nonzero;fill:rgb(0%,100%,0%);fill-opacity:1;" d="M 39.902344 16.921875 C 38.398438 16.503906 36.882812 16.136719 35.351562 15.824219 C 33.824219 16.136719 32.308594 16.503906 30.804688 16.921875 C 32.949219 13.554688 34.488281 9.839844 35.351562 5.941406 C 36.21875 9.839844 37.757812 13.554688 39.902344 16.921875 Z M 39.902344 16.921875 "/>
<path style="fill:none;stroke-width:2;stroke-linecap:round;stroke-linejoin:round;stroke:rgb(0%,0%,100%);stroke-opacity:1;stroke-miterlimit:10;" d="M 2.941406 47.058594 C 12.746094 32.351562 22.550781 17.648438 32.351562 2.941406 " transform="matrix(1,0,0,1,3,3)"/>
<path style="fill:none;stroke-width:2;stroke-linecap:round;stroke-linejoin:round;stroke:rgb(0%,0%,100%);stroke-opacity:1;stroke-miterlimit:10;" d="M 30.046875 14.601562 C 29.027344 13.417969 27.96875 12.273438 26.871094 11.164062 C 25.425781 10.578125 23.960938 10.039062 22.476562 9.554688 C 26.128906 7.941406 29.472656 5.703125 32.351562 2.941406 C 30.910156 6.664062 30.128906 10.609375 30.046875 14.601562 " transform="matrix(1,0,0,1,3,3)"/>
<path style=" stroke:none;fill-rule:nonzero;fill:rgb(0%,0%,100%);fill-opacity:1;" d="M 33.046875 17.601562 C 32.027344 16.417969 30.96875 15.273438 29.871094 14.164062 C 28.425781 13.578125 26.960938 13.039062 25.476562 12.554688 C 29.128906 10.941406 32.472656 8.703125 35.351562 5.941406 C 33.910156 9.664062 33.128906 13.609375 33.046875 17.601562 Z M 33.046875 17.601562 "/>
</g>
</svg>
