<?xml version="1.0" encoding="UTF-8"?>
<svg xmlns="http://www.w3.org/2000/svg" xmlns:xlink="http://www.w3.org/1999/xlink" width="116" height="116" viewBox="0 0 116 116" version="1.1">
<g id="surface5932">
<path style="fill:none;stroke-width:1;stroke-linecap:round;stroke-linejoin:round;stroke:rgb(0%,0%,0%);stroke-opacity:1;stroke-miterlimit:10;" d="M 5 105 C 5 71.667969 5 38.332031 5 5 " transform="matrix(1,0,0,1,3,3)"/>
<path style="fill:none;stroke-width:1;stroke-linecap:round;stroke-linejoin:round;stroke:rgb(0%,0%,0%);stroke-opacity:1;stroke-miterlimit:10;" d="M 38.332031 105 C 38.332031 71.667969 38.332031 38.332031 38.332031 5 " transform="matrix(1,0,0,1,3,3)"/>
<path style="fill:none;stroke-width:1;stroke-linecap:round;stroke-linejoin:round;stroke:rgb(0%,0%,0%);stroke-opacity:1;stroke-miterlimit:10;" d="M 71.667969 105 C 71.667969 71.667969 71.667969 38.332031 71.667969 5 " transform="matrix(1,0,0,1,3,3)"/>
<path style="fill:none;stroke-width:1;stroke-linecap:round;stroke-linejoin:round;stroke:rgb(0%,0%,0%);stroke-opacity:1;stroke-miterlimit:10;" d="M 105 105 C 105 71.667969 105 38.332031 105 5 " transform="matrix(1,0,0,1,3,3)"/>
<path style="fill:none;stroke-width:1;stroke-linecap:round;stroke-linejoin:round;stroke:rgb(0%,0%,0%);stroke-opacity:1;stroke-miterlimit:10;" d="M 5 105 C 5 71.667969 5 38.332031 5 5 " transform="matrix(1,0,0,1,3,3)"/>
<path style="fill:none;stroke-width:1;stroke-linecap:round;stroke-linejoin:round;stroke:rgb(0%,0%,0%);stroke-opacity:1;stroke-miterlimit:10;" d="M 5 105 C 38.332031 105 71.667969 105 105 105 " transform="matrix(1,0,0,1,3,3)"/>
<path style="fill:none;stroke-width:1;stroke-linecap:round;stroke-linejoin:round;stroke:rgb(0%,0%,0%);stroke-opacity:1;stroke-miterlimit:10;" d="M 5 71.667969 C 38.332031 71.667969 71.667969 71.667969 105 71.667969 " transform="matrix(1,0,0,1,3,3)"/>
<path style="fill:none;stroke-width:1;stroke-linecap:round;stroke-linejoin:round;stroke:rgb(0%,0%,0%);stroke-opacity:1;stroke-miterlimit:10;" d="M 5 38.332031 C 38.332031 38.332031 71.667969 38.332031 105 38.332031 " transform="matrix(1,0,0,1,3,3)"/>
<path style="fill:none;stroke-width:1;stroke-linecap:round;stroke-linejoin:round;stroke:rgb(0%,0%,0%);stroke-opacity:1;stroke-miterlimit:10;" d="M 5 5 C 38.332031 5 71.667969 5 105 5 " transform="matrix(1,0,0,1,3,3)"/>
<path style="fill:none;stroke-width:1;stroke-linecap:round;stroke-linejoin:round;stroke:rgb(0%,0%,0%);stroke-opacity:1;stroke-miterlimit:10;" d="M 5 105 C 38.332031 105 71.667969 105 105 105 " transform="matrix(1,0,0,1,3,3)"/>
<path style=" stroke:none;fill-rule:nonzero;fill:rgb(0%,0%,0%);fill-opacity:1;" d="M 38.667969 91.332031 C 38.667969 87.621094 37.191406 84.058594 34.566406 81.433594 C 31.941406 78.808594 28.378906 77.332031 24.667969 77.332031 C 20.953125 77.332031 17.394531 78.808594 14.765625 81.433594 C 12.140625 84.058594 10.667969 87.621094 10.667969 91.332031 C 10.667969 95.046875 12.140625 98.605469 14.765625 101.234375 C 17.394531 103.859375 20.953125 105.332031 24.667969 105.332031 C 28.378906 105.332031 31.941406 103.859375 34.566406 101.234375 C 37.191406 98.605469 38.667969 95.046875 38.667969 91.332031 Z M 38.667969 91.332031 "/>
<path style=" stroke:none;fill-rule:nonzero;fill:rgb(0%,0%,0%);fill-opacity:1;" d="M 72 91.332031 C 72 87.621094 70.523438 84.058594 67.898438 81.433594 C 65.273438 78.808594 61.714844 77.332031 58 77.332031 C 54.285156 77.332031 50.726562 78.808594 48.101562 81.433594 C 45.476562 84.058594 44 87.621094 44 91.332031 C 44 95.046875 45.476562 98.605469 48.101562 101.234375 C 50.726562 103.859375 54.285156 105.332031 58 105.332031 C 61.714844 105.332031 65.273438 103.859375 67.898438 101.234375 C 70.523438 98.605469 72 95.046875 72 91.332031 Z M 72 91.332031 "/>
<path style=" stroke:none;fill-rule:nonzero;fill:rgb(0%,0%,0%);fill-opacity:1;" d="M 105.332031 91.332031 C 105.332031 87.621094 103.859375 84.058594 101.234375 81.433594 C 98.605469 78.808594 95.046875 77.332031 91.332031 77.332031 C 87.621094 77.332031 84.058594 78.808594 81.433594 81.433594 C 78.808594 84.058594 77.332031 87.621094 77.332031 91.332031 C 77.332031 95.046875 78.808594 98.605469 81.433594 101.234375 C 84.058594 103.859375 87.621094 105.332031 91.332031 105.332031 C 95.046875 105.332031 98.605469 103.859375 101.234375 101.234375 C 103.859375 98.605469 105.332031 95.046875 105.332031 91.332031 Z M 105.332031 91.332031 "/>
<path style=" stroke:none;fill-rule:nonzero;fill:rgb(0%,0%,0%);fill-opacity:1;" d="M 105.332031 58 C 105.332031 54.285156 103.859375 50.726562 101.234375 48.101562 C 98.605469 45.476562 95.046875 44 91.332031 44 C 87.621094 44 84.058594 45.476562 81.433594 48.101562 C 78.808594 50.726562 77.332031 54.285156 77.332031 58 C 77.332031 61.714844 78.808594 65.273438 81.433594 67.898438 C 84.058594 70.523438 87.621094 72 91.332031 72 C 95.046875 72 98.605469 70.523438 101.234375 67.898438 C 103.859375 65.273438 105.332031 61.714844 105.332031 58 Z M 105.332031 58 "/>
<path style=" stroke:none;fill-rule:nonzero;fill:rgb(0%,0%,0%);fill-opacity:1;" d="M 72 24.667969 C 72 20.953125 70.523438 17.394531 67.898438 14.765625 C 65.273438 12.140625 61.714844 10.667969 58 10.667969 C 54.285156 10.667969 50.726562 12.140625 48.101562 14.765625 C 45.476562 17.394531 44 20.953125 44 24.667969 C 44 28.378906 45.476562 31.941406 48.101562 34.566406 C 50.726562 37.191406 54.285156 38.667969 58 38.667969 C 61.714844 38.667969 65.273438 37.191406 67.898438 34.566406 C 70.523438 31.941406 72 28.378906 72 24.667969 Z M 72 24.667969 "/>
</g>
</svg>
