<?xml version="1.0" encoding="UTF-8"?>
<svg xmlns="http://www.w3.org/2000/svg" xmlns:xlink="http://www.w3.org/1999/xlink" width="106" height="106" viewBox="0 0 106 106" version="1.1">
<g id="surface5747">
<path style="fill:none;stroke-width:8;stroke-linecap:round;stroke-linejoin:round;stroke:rgb(0%,0%,0%);stroke-opacity:1;stroke-miterlimit:10;" d="M 27.273438 27.273438 C 27.273438 34.847656 27.273438 42.425781 27.273438 50 C 42.425781 50 57.574219 50 72.726562 50 " transform="matrix(1,0,0,1,3,3)"/>
<path style="fill:none;stroke-width:4;stroke-linecap:round;stroke-linejoin:round;stroke:rgb(100%,0%,0%);stroke-opacity:1;stroke-miterlimit:10;" d="M 50 4.546875 C 50 12.121094 50 19.695312 50 27.273438 C 65.152344 27.273438 80.304688 27.273438 95.453125 27.273438 " transform="matrix(1,0,0,1,3,3)"/>
<path style="fill:none;stroke-width:4;stroke-linecap:round;stroke-linejoin:round;stroke:rgb(0%,0%,100%);stroke-opacity:1;stroke-miterlimit:10;" d="M 27.273438 72.726562 C 34.847656 72.726562 42.425781 72.726562 50 72.726562 C 50 57.574219 50 42.425781 50 27.273438 " transform="matrix(1,0,0,1,3,3)"/>
<path style="fill:none;stroke-width:4;stroke-linecap:round;stroke-linejoin:round;stroke:rgb(0%,100%,0%);stroke-opacity:1;stroke-miterlimit:10;" d="M 27.273438 77.273438 C 27.273438 69.695312 27.273438 62.121094 27.273438 54.546875 C 42.425781 54.546875 57.574219 54.546875 72.726562 54.546875 " transform="matrix(1,0,0,1,3,3)"/>
</g>
</svg>
