<?xml version="1.0" encoding="UTF-8"?>
<svg xmlns="http://www.w3.org/2000/svg" xmlns:xlink="http://www.w3.org/1999/xlink" width="206" height="106" viewBox="0 0 206 106" version="1.1">
<defs>
<clipPath id="clip1">
  <path d="M 138 4 L 202 4 L 202 53 L 138 53 Z M 138 4 "/>
</clipPath>
<clipPath id="clip2">
  <path d="M 3 53 C 69.667969 53 136.332031 53 203 53 C 203 36.332031 203 19.667969 203 3 C 136.332031 3 69.667969 3 3 3 C 3 19.667969 3 36.332031 3 53 "/>
</clipPath>
<clipPath id="clip3">
  <path d="M 136 3 L 203 3 L 203 53 L 136 53 Z M 136 3 "/>
</clipPath>
<clipPath id="clip4">
  <path d="M 3 53 C 69.667969 53 136.332031 53 203 53 C 203 36.332031 203 19.667969 203 3 C 136.332031 3 69.667969 3 3 3 C 3 19.667969 3 36.332031 3 53 "/>
</clipPath>
<clipPath id="clip5">
  <path d="M 142 9 L 197 9 L 197 53 L 142 53 Z M 142 9 "/>
</clipPath>
<clipPath id="clip6">
  <path d="M 3 53 C 69.667969 53 136.332031 53 203 53 C 203 36.332031 203 19.667969 203 3 C 136.332031 3 69.667969 3 3 3 C 3 19.667969 3 36.332031 3 53 "/>
</clipPath>
<clipPath id="clip7">
  <path d="M 104 34 L 168 34 L 168 53 L 104 53 Z M 104 34 "/>
</clipPath>
<clipPath id="clip8">
  <path d="M 3 53 C 69.667969 53 136.332031 53 203 53 C 203 36.332031 203 19.667969 203 3 C 136.332031 3 69.667969 3 3 3 C 3 19.667969 3 36.332031 3 53 "/>
</clipPath>
<clipPath id="clip9">
  <path d="M 102 32 L 170 32 L 170 53 L 102 53 Z M 102 32 "/>
</clipPath>
<clipPath id="clip10">
  <path d="M 3 53 C 69.667969 53 136.332031 53 203 53 C 203 36.332031 203 19.667969 203 3 C 136.332031 3 69.667969 3 3 3 C 3 19.667969 3 36.332031 3 53 "/>
</clipPath>
<clipPath id="clip11">
  <path d="M 109 39 L 164 39 L 164 53 L 109 53 Z M 109 39 "/>
</clipPath>
<clipPath id="clip12">
  <path d="M 3 53 C 69.667969 53 136.332031 53 203 53 C 203 36.332031 203 19.667969 203 3 C 136.332031 3 69.667969 3 3 3 C 3 19.667969 3 36.332031 3 53 "/>
</clipPath>
<clipPath id="clip13">
  <path d="M 71 4 L 135 4 L 135 53 L 71 53 Z M 71 4 "/>
</clipPath>
<clipPath id="clip14">
  <path d="M 3 53 C 69.667969 53 136.332031 53 203 53 C 203 36.332031 203 19.667969 203 3 C 136.332031 3 69.667969 3 3 3 C 3 19.667969 3 36.332031 3 53 "/>
</clipPath>
<clipPath id="clip15">
  <path d="M 69 3 L 137 3 L 137 53 L 69 53 Z M 69 3 "/>
</clipPath>
<clipPath id="clip16">
  <path d="M 3 53 C 69.667969 53 136.332031 53 203 53 C 203 36.332031 203 19.667969 203 3 C 136.332031 3 69.667969 3 3 3 C 3 19.667969 3 36.332031 3 53 "/>
</clipPath>
<clipPath id="clip17">
  <path d="M 76 9 L 130 9 L 130 53 L 76 53 Z M 76 9 "/>
</clipPath>
<clipPath id="clip18">
  <path d="M 3 53 C 69.667969 53 136.332031 53 203 53 C 203 36.332031 203 19.667969 203 3 C 136.332031 3 69.667969 3 3 3 C 3 19.667969 3 36.332031 3 53 "/>
</clipPath>
<clipPath id="clip19">
  <path d="M 38 34 L 102 34 L 102 53 L 38 53 Z M 38 34 "/>
</clipPath>
<clipPath id="clip20">
  <path d="M 3 53 C 69.667969 53 136.332031 53 203 53 C 203 36.332031 203 19.667969 203 3 C 136.332031 3 69.667969 3 3 3 C 3 19.667969 3 36.332031 3 53 "/>
</clipPath>
<clipPath id="clip21">
  <path d="M 36 32 L 104 32 L 104 53 L 36 53 Z M 36 32 "/>
</clipPath>
<clipPath id="clip22">
  <path d="M 3 53 C 69.667969 53 136.332031 53 203 53 C 203 36.332031 203 19.667969 203 3 C 136.332031 3 69.667969 3 3 3 C 3 19.667969 3 36.332031 3 53 "/>
</clipPath>
<clipPath id="clip23">
  <path d="M 42 39 L 97 39 L 97 53 L 42 53 Z M 42 39 "/>
</clipPath>
<clipPath id="clip24">
  <path d="M 3 53 C 69.667969 53 136.332031 53 203 53 C 203 36.332031 203 19.667969 203 3 C 136.332031 3 69.667969 3 3 3 C 3 19.667969 3 36.332031 3 53 "/>
</clipPath>
<clipPath id="clip25">
  <path d="M 4 4 L 68 4 L 68 53 L 4 53 Z M 4 4 "/>
</clipPath>
<clipPath id="clip26">
  <path d="M 3 53 C 69.667969 53 136.332031 53 203 53 C 203 36.332031 203 19.667969 203 3 C 136.332031 3 69.667969 3 3 3 C 3 19.667969 3 36.332031 3 53 "/>
</clipPath>
<clipPath id="clip27">
  <path d="M 3 3 L 70 3 L 70 53 L 3 53 Z M 3 3 "/>
</clipPath>
<clipPath id="clip28">
  <path d="M 3 53 C 69.667969 53 136.332031 53 203 53 C 203 36.332031 203 19.667969 203 3 C 136.332031 3 69.667969 3 3 3 C 3 19.667969 3 36.332031 3 53 "/>
</clipPath>
<clipPath id="clip29">
  <path d="M 9 9 L 64 9 L 64 53 L 9 53 Z M 9 9 "/>
</clipPath>
<clipPath id="clip30">
  <path d="M 3 53 C 69.667969 53 136.332031 53 203 53 C 203 36.332031 203 19.667969 203 3 C 136.332031 3 69.667969 3 3 3 C 3 19.667969 3 36.332031 3 53 "/>
</clipPath>
<clipPath id="clip31">
  <path d="M 4 49 L 68 49 L 68 68 L 4 68 Z M 4 49 "/>
</clipPath>
<clipPath id="clip32">
  <path d="M 3 99.667969 C 69.667969 99.667969 136.332031 99.667969 203 99.667969 C 203 83 203 66.332031 203 49.667969 C 136.332031 49.667969 69.667969 49.667969 3 49.667969 C 3 66.332031 3 83 3 99.667969 "/>
</clipPath>
<clipPath id="clip33">
  <path d="M 3 49 L 70 49 L 70 70 L 3 70 Z M 3 49 "/>
</clipPath>
<clipPath id="clip34">
  <path d="M 3 99.667969 C 69.667969 99.667969 136.332031 99.667969 203 99.667969 C 203 83 203 66.332031 203 49.667969 C 136.332031 49.667969 69.667969 49.667969 3 49.667969 C 3 66.332031 3 83 3 99.667969 "/>
</clipPath>
<clipPath id="clip35">
  <path d="M 9 49 L 64 49 L 64 64 L 9 64 Z M 9 49 "/>
</clipPath>
<clipPath id="clip36">
  <path d="M 3 99.667969 C 69.667969 99.667969 136.332031 99.667969 203 99.667969 C 203 83 203 66.332031 203 49.667969 C 136.332031 49.667969 69.667969 49.667969 3 49.667969 C 3 66.332031 3 83 3 99.667969 "/>
</clipPath>
<clipPath id="clip37">
  <path d="M 38 49 L 102 49 L 102 98 L 38 98 Z M 38 49 "/>
</clipPath>
<clipPath id="clip38">
  <path d="M 3 99.667969 C 69.667969 99.667969 136.332031 99.667969 203 99.667969 C 203 83 203 66.332031 203 49.667969 C 136.332031 49.667969 69.667969 49.667969 3 49.667969 C 3 66.332031 3 83 3 99.667969 "/>
</clipPath>
<clipPath id="clip39">
  <path d="M 36 49 L 104 49 L 104 100 L 36 100 Z M 36 49 "/>
</clipPath>
<clipPath id="clip40">
  <path d="M 3 99.667969 C 69.667969 99.667969 136.332031 99.667969 203 99.667969 C 203 83 203 66.332031 203 49.667969 C 136.332031 49.667969 69.667969 49.667969 3 49.667969 C 3 66.332031 3 83 3 99.667969 "/>
</clipPath>
<clipPath id="clip41">
  <path d="M 42 49 L 97 49 L 97 94 L 42 94 Z M 42 49 "/>
</clipPath>
<clipPath id="clip42">
  <path d="M 3 99.667969 C 69.667969 99.667969 136.332031 99.667969 203 99.667969 C 203 83 203 66.332031 203 49.667969 C 136.332031 49.667969 69.667969 49.667969 3 49.667969 C 3 66.332031 3 83 3 99.667969 "/>
</clipPath>
<clipPath id="clip43">
  <path d="M 71 49 L 135 49 L 135 68 L 71 68 Z M 71 49 "/>
</clipPath>
<clipPath id="clip44">
  <path d="M 3 99.667969 C 69.667969 99.667969 136.332031 99.667969 203 99.667969 C 203 83 203 66.332031 203 49.667969 C 136.332031 49.667969 69.667969 49.667969 3 49.667969 C 3 66.332031 3 83 3 99.667969 "/>
</clipPath>
<clipPath id="clip45">
  <path d="M 69 49 L 137 49 L 137 70 L 69 70 Z M 69 49 "/>
</clipPath>
<clipPath id="clip46">
  <path d="M 3 99.667969 C 69.667969 99.667969 136.332031 99.667969 203 99.667969 C 203 83 203 66.332031 203 49.667969 C 136.332031 49.667969 69.667969 49.667969 3 49.667969 C 3 66.332031 3 83 3 99.667969 "/>
</clipPath>
<clipPath id="clip47">
  <path d="M 76 49 L 130 49 L 130 64 L 76 64 Z M 76 49 "/>
</clipPath>
<clipPath id="clip48">
  <path d="M 3 99.667969 C 69.667969 99.667969 136.332031 99.667969 203 99.667969 C 203 83 203 66.332031 203 49.667969 C 136.332031 49.667969 69.667969 49.667969 3 49.667969 C 3 66.332031 3 83 3 99.667969 "/>
</clipPath>
<clipPath id="clip49">
  <path d="M 104 49 L 168 49 L 168 98 L 104 98 Z M 104 49 "/>
</clipPath>
<clipPath id="clip50">
  <path d="M 3 99.667969 C 69.667969 99.667969 136.332031 99.667969 203 99.667969 C 203 83 203 66.332031 203 49.667969 C 136.332031 49.667969 69.667969 49.667969 3 49.667969 C 3 66.332031 3 83 3 99.667969 "/>
</clipPath>
<clipPath id="clip51">
  <path d="M 102 49 L 170 49 L 170 100 L 102 100 Z M 102 49 "/>
</clipPath>
<clipPath id="clip52">
  <path d="M 3 99.667969 C 69.667969 99.667969 136.332031 99.667969 203 99.667969 C 203 83 203 66.332031 203 49.667969 C 136.332031 49.667969 69.667969 49.667969 3 49.667969 C 3 66.332031 3 83 3 99.667969 "/>
</clipPath>
<clipPath id="clip53">
  <path d="M 109 49 L 164 49 L 164 94 L 109 94 Z M 109 49 "/>
</clipPath>
<clipPath id="clip54">
  <path d="M 3 99.667969 C 69.667969 99.667969 136.332031 99.667969 203 99.667969 C 203 83 203 66.332031 203 49.667969 C 136.332031 49.667969 69.667969 49.667969 3 49.667969 C 3 66.332031 3 83 3 99.667969 "/>
</clipPath>
<clipPath id="clip55">
  <path d="M 138 49 L 202 49 L 202 68 L 138 68 Z M 138 49 "/>
</clipPath>
<clipPath id="clip56">
  <path d="M 3 99.667969 C 69.667969 99.667969 136.332031 99.667969 203 99.667969 C 203 83 203 66.332031 203 49.667969 C 136.332031 49.667969 69.667969 49.667969 3 49.667969 C 3 66.332031 3 83 3 99.667969 "/>
</clipPath>
<clipPath id="clip57">
  <path d="M 136 49 L 203 49 L 203 70 L 136 70 Z M 136 49 "/>
</clipPath>
<clipPath id="clip58">
  <path d="M 3 99.667969 C 69.667969 99.667969 136.332031 99.667969 203 99.667969 C 203 83 203 66.332031 203 49.667969 C 136.332031 49.667969 69.667969 49.667969 3 49.667969 C 3 66.332031 3 83 3 99.667969 "/>
</clipPath>
<clipPath id="clip59">
  <path d="M 142 49 L 197 49 L 197 64 L 142 64 Z M 142 49 "/>
</clipPath>
<clipPath id="clip60">
  <path d="M 3 99.667969 C 69.667969 99.667969 136.332031 99.667969 203 99.667969 C 203 83 203 66.332031 203 49.667969 C 136.332031 49.667969 69.667969 49.667969 3 49.667969 C 3 66.332031 3 83 3 99.667969 "/>
</clipPath>
</defs>
<g id="surface5944">
<g clip-path="url(#clip1)" clip-rule="nonzero">
<g clip-path="url(#clip2)" clip-rule="evenodd">
<path style=" stroke:none;fill-rule:nonzero;fill:rgb(93.333333%,19.607843%,30.588235%);fill-opacity:1;" d="M 201.332031 36.332031 C 201.332031 27.933594 197.996094 19.878906 192.058594 13.941406 C 186.121094 8.003906 178.066406 4.667969 169.667969 4.667969 C 161.269531 4.667969 153.214844 8.003906 147.273438 13.941406 C 141.335938 19.878906 138 27.933594 138 36.332031 C 138 44.730469 141.335938 52.785156 147.273438 58.726562 C 153.214844 64.664062 161.269531 68 169.667969 68 C 178.066406 68 186.121094 64.664062 192.058594 58.726562 C 197.996094 52.785156 201.332031 44.730469 201.332031 36.332031 Z M 194.667969 36.332031 C 194.667969 42.964844 192.03125 49.324219 187.34375 54.011719 C 182.65625 58.699219 176.296875 61.332031 169.667969 61.332031 C 163.035156 61.332031 156.675781 58.699219 151.988281 54.011719 C 147.300781 49.324219 144.667969 42.964844 144.667969 36.332031 C 144.667969 29.703125 147.300781 23.34375 151.988281 18.65625 C 156.675781 13.96875 163.035156 11.332031 169.667969 11.332031 C 176.296875 11.332031 182.65625 13.96875 187.34375 18.65625 C 192.03125 23.34375 194.667969 29.703125 194.667969 36.332031 Z M 194.667969 36.332031 "/>
</g>
</g>
<g clip-path="url(#clip3)" clip-rule="nonzero">
<g clip-path="url(#clip4)" clip-rule="evenodd">
<path style="fill:none;stroke-width:4;stroke-linecap:round;stroke-linejoin:round;stroke:rgb(100%,100%,100%);stroke-opacity:1;stroke-miterlimit:10;" d="M 198.332031 33.332031 C 198.332031 24.933594 194.996094 16.878906 189.058594 10.941406 C 183.121094 5.003906 175.066406 1.667969 166.667969 1.667969 C 158.269531 1.667969 150.214844 5.003906 144.273438 10.941406 C 138.335938 16.878906 135 24.933594 135 33.332031 C 135 41.730469 138.335938 49.785156 144.273438 55.726562 C 150.214844 61.664062 158.269531 65 166.667969 65 C 175.066406 65 183.121094 61.664062 189.058594 55.726562 C 194.996094 49.785156 198.332031 41.730469 198.332031 33.332031 " transform="matrix(1,0,0,1,3,3)"/>
</g>
</g>
<g clip-path="url(#clip5)" clip-rule="nonzero">
<g clip-path="url(#clip6)" clip-rule="evenodd">
<path style="fill:none;stroke-width:4;stroke-linecap:round;stroke-linejoin:round;stroke:rgb(100%,100%,100%);stroke-opacity:1;stroke-miterlimit:10;" d="M 191.667969 33.332031 C 191.667969 26.703125 189.03125 20.34375 184.34375 15.65625 C 179.65625 10.96875 173.296875 8.332031 166.667969 8.332031 C 160.035156 8.332031 153.675781 10.96875 148.988281 15.65625 C 144.300781 20.34375 141.667969 26.703125 141.667969 33.332031 C 141.667969 39.964844 144.300781 46.324219 148.988281 51.011719 C 153.675781 55.699219 160.035156 58.332031 166.667969 58.332031 C 173.296875 58.332031 179.65625 55.699219 184.34375 51.011719 C 189.03125 46.324219 191.667969 39.964844 191.667969 33.332031 " transform="matrix(1,0,0,1,3,3)"/>
</g>
</g>
<g clip-path="url(#clip7)" clip-rule="nonzero">
<g clip-path="url(#clip8)" clip-rule="evenodd">
<path style=" stroke:none;fill-rule:nonzero;fill:rgb(0%,61.568627%,34.117647%);fill-opacity:1;" d="M 168 66.332031 C 168 57.933594 164.664062 49.878906 158.726562 43.941406 C 152.785156 38.003906 144.730469 34.667969 136.332031 34.667969 C 127.933594 34.667969 119.878906 38.003906 113.941406 43.941406 C 108.003906 49.878906 104.667969 57.933594 104.667969 66.332031 C 104.667969 74.730469 108.003906 82.785156 113.941406 88.726562 C 119.878906 94.664062 127.933594 98 136.332031 98 C 144.730469 98 152.785156 94.664062 158.726562 88.726562 C 164.664062 82.785156 168 74.730469 168 66.332031 Z M 161.332031 66.332031 C 161.332031 72.964844 158.699219 79.324219 154.011719 84.011719 C 149.324219 88.699219 142.964844 91.332031 136.332031 91.332031 C 129.703125 91.332031 123.34375 88.699219 118.65625 84.011719 C 113.96875 79.324219 111.332031 72.964844 111.332031 66.332031 C 111.332031 59.703125 113.96875 53.34375 118.65625 48.65625 C 123.34375 43.96875 129.703125 41.332031 136.332031 41.332031 C 142.964844 41.332031 149.324219 43.96875 154.011719 48.65625 C 158.699219 53.34375 161.332031 59.703125 161.332031 66.332031 Z M 161.332031 66.332031 "/>
</g>
</g>
<g clip-path="url(#clip9)" clip-rule="nonzero">
<g clip-path="url(#clip10)" clip-rule="evenodd">
<path style="fill:none;stroke-width:4;stroke-linecap:round;stroke-linejoin:round;stroke:rgb(100%,100%,100%);stroke-opacity:1;stroke-miterlimit:10;" d="M 165 63.332031 C 165 54.933594 161.664062 46.878906 155.726562 40.941406 C 149.785156 35.003906 141.730469 31.667969 133.332031 31.667969 C 124.933594 31.667969 116.878906 35.003906 110.941406 40.941406 C 105.003906 46.878906 101.667969 54.933594 101.667969 63.332031 C 101.667969 71.730469 105.003906 79.785156 110.941406 85.726562 C 116.878906 91.664062 124.933594 95 133.332031 95 C 141.730469 95 149.785156 91.664062 155.726562 85.726562 C 161.664062 79.785156 165 71.730469 165 63.332031 " transform="matrix(1,0,0,1,3,3)"/>
</g>
</g>
<g clip-path="url(#clip11)" clip-rule="nonzero">
<g clip-path="url(#clip12)" clip-rule="evenodd">
<path style="fill:none;stroke-width:4;stroke-linecap:round;stroke-linejoin:round;stroke:rgb(100%,100%,100%);stroke-opacity:1;stroke-miterlimit:10;" d="M 158.332031 63.332031 C 158.332031 56.703125 155.699219 50.34375 151.011719 45.65625 C 146.324219 40.96875 139.964844 38.332031 133.332031 38.332031 C 126.703125 38.332031 120.34375 40.96875 115.65625 45.65625 C 110.96875 50.34375 108.332031 56.703125 108.332031 63.332031 C 108.332031 69.964844 110.96875 76.324219 115.65625 81.011719 C 120.34375 85.699219 126.703125 88.332031 133.332031 88.332031 C 139.964844 88.332031 146.324219 85.699219 151.011719 81.011719 C 155.699219 76.324219 158.332031 69.964844 158.332031 63.332031 " transform="matrix(1,0,0,1,3,3)"/>
</g>
</g>
<g clip-path="url(#clip13)" clip-rule="nonzero">
<g clip-path="url(#clip14)" clip-rule="evenodd">
<path style=" stroke:none;fill-rule:nonzero;fill:rgb(13.72549%,13.333333%,13.72549%);fill-opacity:1;" d="M 134.667969 36.332031 C 134.667969 27.933594 131.332031 19.878906 125.390625 13.941406 C 119.453125 8.003906 111.398438 4.667969 103 4.667969 C 94.601562 4.667969 86.546875 8.003906 80.609375 13.941406 C 74.667969 19.878906 71.332031 27.933594 71.332031 36.332031 C 71.332031 44.730469 74.667969 52.785156 80.609375 58.726562 C 86.546875 64.664062 94.601562 68 103 68 C 111.398438 68 119.453125 64.664062 125.390625 58.726562 C 131.332031 52.785156 134.667969 44.730469 134.667969 36.332031 Z M 128 36.332031 C 128 42.964844 125.367188 49.324219 120.675781 54.011719 C 115.988281 58.699219 109.628906 61.332031 103 61.332031 C 96.371094 61.332031 90.011719 58.699219 85.324219 54.011719 C 80.632812 49.324219 78 42.964844 78 36.332031 C 78 29.703125 80.632812 23.34375 85.324219 18.65625 C 90.011719 13.96875 96.371094 11.332031 103 11.332031 C 109.628906 11.332031 115.988281 13.96875 120.675781 18.65625 C 125.367188 23.34375 128 29.703125 128 36.332031 Z M 128 36.332031 "/>
</g>
</g>
<g clip-path="url(#clip15)" clip-rule="nonzero">
<g clip-path="url(#clip16)" clip-rule="evenodd">
<path style="fill:none;stroke-width:4;stroke-linecap:round;stroke-linejoin:round;stroke:rgb(100%,100%,100%);stroke-opacity:1;stroke-miterlimit:10;" d="M 131.667969 33.332031 C 131.667969 24.933594 128.332031 16.878906 122.390625 10.941406 C 116.453125 5.003906 108.398438 1.667969 100 1.667969 C 91.601562 1.667969 83.546875 5.003906 77.609375 10.941406 C 71.667969 16.878906 68.332031 24.933594 68.332031 33.332031 C 68.332031 41.730469 71.667969 49.785156 77.609375 55.726562 C 83.546875 61.664062 91.601562 65 100 65 C 108.398438 65 116.453125 61.664062 122.390625 55.726562 C 128.332031 49.785156 131.667969 41.730469 131.667969 33.332031 " transform="matrix(1,0,0,1,3,3)"/>
</g>
</g>
<g clip-path="url(#clip17)" clip-rule="nonzero">
<g clip-path="url(#clip18)" clip-rule="evenodd">
<path style="fill:none;stroke-width:4;stroke-linecap:round;stroke-linejoin:round;stroke:rgb(100%,100%,100%);stroke-opacity:1;stroke-miterlimit:10;" d="M 125 33.332031 C 125 26.703125 122.367188 20.34375 117.675781 15.65625 C 112.988281 10.96875 106.628906 8.332031 100 8.332031 C 93.371094 8.332031 87.011719 10.96875 82.324219 15.65625 C 77.632812 20.34375 75 26.703125 75 33.332031 C 75 39.964844 77.632812 46.324219 82.324219 51.011719 C 87.011719 55.699219 93.371094 58.332031 100 58.332031 C 106.628906 58.332031 112.988281 55.699219 117.675781 51.011719 C 122.367188 46.324219 125 39.964844 125 33.332031 " transform="matrix(1,0,0,1,3,3)"/>
</g>
</g>
<g clip-path="url(#clip19)" clip-rule="nonzero">
<g clip-path="url(#clip20)" clip-rule="evenodd">
<path style=" stroke:none;fill-rule:nonzero;fill:rgb(98.823529%,69.411765%,19.215686%);fill-opacity:1;" d="M 101.332031 66.332031 C 101.332031 57.933594 97.996094 49.878906 92.058594 43.941406 C 86.121094 38.003906 78.066406 34.667969 69.667969 34.667969 C 61.269531 34.667969 53.214844 38.003906 47.273438 43.941406 C 41.335938 49.878906 38 57.933594 38 66.332031 C 38 74.730469 41.335938 82.785156 47.273438 88.726562 C 53.214844 94.664062 61.269531 98 69.667969 98 C 78.066406 98 86.121094 94.664062 92.058594 88.726562 C 97.996094 82.785156 101.332031 74.730469 101.332031 66.332031 Z M 94.667969 66.332031 C 94.667969 72.964844 92.03125 79.324219 87.34375 84.011719 C 82.65625 88.699219 76.296875 91.332031 69.667969 91.332031 C 63.035156 91.332031 56.675781 88.699219 51.988281 84.011719 C 47.300781 79.324219 44.667969 72.964844 44.667969 66.332031 C 44.667969 59.703125 47.300781 53.34375 51.988281 48.65625 C 56.675781 43.96875 63.035156 41.332031 69.667969 41.332031 C 76.296875 41.332031 82.65625 43.96875 87.34375 48.65625 C 92.03125 53.34375 94.667969 59.703125 94.667969 66.332031 Z M 94.667969 66.332031 "/>
</g>
</g>
<g clip-path="url(#clip21)" clip-rule="nonzero">
<g clip-path="url(#clip22)" clip-rule="evenodd">
<path style="fill:none;stroke-width:4;stroke-linecap:round;stroke-linejoin:round;stroke:rgb(100%,100%,100%);stroke-opacity:1;stroke-miterlimit:10;" d="M 98.332031 63.332031 C 98.332031 54.933594 94.996094 46.878906 89.058594 40.941406 C 83.121094 35.003906 75.066406 31.667969 66.667969 31.667969 C 58.269531 31.667969 50.214844 35.003906 44.273438 40.941406 C 38.335938 46.878906 35 54.933594 35 63.332031 C 35 71.730469 38.335938 79.785156 44.273438 85.726562 C 50.214844 91.664062 58.269531 95 66.667969 95 C 75.066406 95 83.121094 91.664062 89.058594 85.726562 C 94.996094 79.785156 98.332031 71.730469 98.332031 63.332031 " transform="matrix(1,0,0,1,3,3)"/>
</g>
</g>
<g clip-path="url(#clip23)" clip-rule="nonzero">
<g clip-path="url(#clip24)" clip-rule="evenodd">
<path style="fill:none;stroke-width:4;stroke-linecap:round;stroke-linejoin:round;stroke:rgb(100%,100%,100%);stroke-opacity:1;stroke-miterlimit:10;" d="M 91.667969 63.332031 C 91.667969 56.703125 89.03125 50.34375 84.34375 45.65625 C 79.65625 40.96875 73.296875 38.332031 66.667969 38.332031 C 60.035156 38.332031 53.675781 40.96875 48.988281 45.65625 C 44.300781 50.34375 41.667969 56.703125 41.667969 63.332031 C 41.667969 69.964844 44.300781 76.324219 48.988281 81.011719 C 53.675781 85.699219 60.035156 88.332031 66.667969 88.332031 C 73.296875 88.332031 79.65625 85.699219 84.34375 81.011719 C 89.03125 76.324219 91.667969 69.964844 91.667969 63.332031 " transform="matrix(1,0,0,1,3,3)"/>
</g>
</g>
<g clip-path="url(#clip25)" clip-rule="nonzero">
<g clip-path="url(#clip26)" clip-rule="evenodd">
<path style=" stroke:none;fill-rule:nonzero;fill:rgb(0%,50.588235%,73.72549%);fill-opacity:1;" d="M 68 36.332031 C 68 27.933594 64.664062 19.878906 58.726562 13.941406 C 52.785156 8.003906 44.730469 4.667969 36.332031 4.667969 C 27.933594 4.667969 19.878906 8.003906 13.941406 13.941406 C 8.003906 19.878906 4.667969 27.933594 4.667969 36.332031 C 4.667969 44.730469 8.003906 52.785156 13.941406 58.726562 C 19.878906 64.664062 27.933594 68 36.332031 68 C 44.730469 68 52.785156 64.664062 58.726562 58.726562 C 64.664062 52.785156 68 44.730469 68 36.332031 Z M 61.332031 36.332031 C 61.332031 42.964844 58.699219 49.324219 54.011719 54.011719 C 49.324219 58.699219 42.964844 61.332031 36.332031 61.332031 C 29.703125 61.332031 23.34375 58.699219 18.65625 54.011719 C 13.96875 49.324219 11.332031 42.964844 11.332031 36.332031 C 11.332031 29.703125 13.96875 23.34375 18.65625 18.65625 C 23.34375 13.96875 29.703125 11.332031 36.332031 11.332031 C 42.964844 11.332031 49.324219 13.96875 54.011719 18.65625 C 58.699219 23.34375 61.332031 29.703125 61.332031 36.332031 Z M 61.332031 36.332031 "/>
</g>
</g>
<g clip-path="url(#clip27)" clip-rule="nonzero">
<g clip-path="url(#clip28)" clip-rule="evenodd">
<path style="fill:none;stroke-width:4;stroke-linecap:round;stroke-linejoin:round;stroke:rgb(100%,100%,100%);stroke-opacity:1;stroke-miterlimit:10;" d="M 65 33.332031 C 65 24.933594 61.664062 16.878906 55.726562 10.941406 C 49.785156 5.003906 41.730469 1.667969 33.332031 1.667969 C 24.933594 1.667969 16.878906 5.003906 10.941406 10.941406 C 5.003906 16.878906 1.667969 24.933594 1.667969 33.332031 C 1.667969 41.730469 5.003906 49.785156 10.941406 55.726562 C 16.878906 61.664062 24.933594 65 33.332031 65 C 41.730469 65 49.785156 61.664062 55.726562 55.726562 C 61.664062 49.785156 65 41.730469 65 33.332031 " transform="matrix(1,0,0,1,3,3)"/>
</g>
</g>
<g clip-path="url(#clip29)" clip-rule="nonzero">
<g clip-path="url(#clip30)" clip-rule="evenodd">
<path style="fill:none;stroke-width:4;stroke-linecap:round;stroke-linejoin:round;stroke:rgb(100%,100%,100%);stroke-opacity:1;stroke-miterlimit:10;" d="M 58.332031 33.332031 C 58.332031 26.703125 55.699219 20.34375 51.011719 15.65625 C 46.324219 10.96875 39.964844 8.332031 33.332031 8.332031 C 26.703125 8.332031 20.34375 10.96875 15.65625 15.65625 C 10.96875 20.34375 8.332031 26.703125 8.332031 33.332031 C 8.332031 39.964844 10.96875 46.324219 15.65625 51.011719 C 20.34375 55.699219 26.703125 58.332031 33.332031 58.332031 C 39.964844 58.332031 46.324219 55.699219 51.011719 51.011719 C 55.699219 46.324219 58.332031 39.964844 58.332031 33.332031 " transform="matrix(1,0,0,1,3,3)"/>
</g>
</g>
<g clip-path="url(#clip31)" clip-rule="nonzero">
<g clip-path="url(#clip32)" clip-rule="evenodd">
<path style=" stroke:none;fill-rule:nonzero;fill:rgb(0%,50.588235%,73.72549%);fill-opacity:1;" d="M 68 36.332031 C 68 27.933594 64.664062 19.878906 58.726562 13.941406 C 52.785156 8.003906 44.730469 4.667969 36.332031 4.667969 C 27.933594 4.667969 19.878906 8.003906 13.941406 13.941406 C 8.003906 19.878906 4.667969 27.933594 4.667969 36.332031 C 4.667969 44.730469 8.003906 52.785156 13.941406 58.726562 C 19.878906 64.664062 27.933594 68 36.332031 68 C 44.730469 68 52.785156 64.664062 58.726562 58.726562 C 64.664062 52.785156 68 44.730469 68 36.332031 Z M 61.332031 36.332031 C 61.332031 42.964844 58.699219 49.324219 54.011719 54.011719 C 49.324219 58.699219 42.964844 61.332031 36.332031 61.332031 C 29.703125 61.332031 23.34375 58.699219 18.65625 54.011719 C 13.96875 49.324219 11.332031 42.964844 11.332031 36.332031 C 11.332031 29.703125 13.96875 23.34375 18.65625 18.65625 C 23.34375 13.96875 29.703125 11.332031 36.332031 11.332031 C 42.964844 11.332031 49.324219 13.96875 54.011719 18.65625 C 58.699219 23.34375 61.332031 29.703125 61.332031 36.332031 Z M 61.332031 36.332031 "/>
</g>
</g>
<g clip-path="url(#clip33)" clip-rule="nonzero">
<g clip-path="url(#clip34)" clip-rule="evenodd">
<path style="fill:none;stroke-width:4;stroke-linecap:round;stroke-linejoin:round;stroke:rgb(100%,100%,100%);stroke-opacity:1;stroke-miterlimit:10;" d="M 65 33.332031 C 65 24.933594 61.664062 16.878906 55.726562 10.941406 C 49.785156 5.003906 41.730469 1.667969 33.332031 1.667969 C 24.933594 1.667969 16.878906 5.003906 10.941406 10.941406 C 5.003906 16.878906 1.667969 24.933594 1.667969 33.332031 C 1.667969 41.730469 5.003906 49.785156 10.941406 55.726562 C 16.878906 61.664062 24.933594 65 33.332031 65 C 41.730469 65 49.785156 61.664062 55.726562 55.726562 C 61.664062 49.785156 65 41.730469 65 33.332031 " transform="matrix(1,0,0,1,3,3)"/>
</g>
</g>
<g clip-path="url(#clip35)" clip-rule="nonzero">
<g clip-path="url(#clip36)" clip-rule="evenodd">
<path style="fill:none;stroke-width:4;stroke-linecap:round;stroke-linejoin:round;stroke:rgb(100%,100%,100%);stroke-opacity:1;stroke-miterlimit:10;" d="M 58.332031 33.332031 C 58.332031 26.703125 55.699219 20.34375 51.011719 15.65625 C 46.324219 10.96875 39.964844 8.332031 33.332031 8.332031 C 26.703125 8.332031 20.34375 10.96875 15.65625 15.65625 C 10.96875 20.34375 8.332031 26.703125 8.332031 33.332031 C 8.332031 39.964844 10.96875 46.324219 15.65625 51.011719 C 20.34375 55.699219 26.703125 58.332031 33.332031 58.332031 C 39.964844 58.332031 46.324219 55.699219 51.011719 51.011719 C 55.699219 46.324219 58.332031 39.964844 58.332031 33.332031 " transform="matrix(1,0,0,1,3,3)"/>
</g>
</g>
<g clip-path="url(#clip37)" clip-rule="nonzero">
<g clip-path="url(#clip38)" clip-rule="evenodd">
<path style=" stroke:none;fill-rule:nonzero;fill:rgb(98.823529%,69.411765%,19.215686%);fill-opacity:1;" d="M 101.332031 66.332031 C 101.332031 57.933594 97.996094 49.878906 92.058594 43.941406 C 86.121094 38.003906 78.066406 34.667969 69.667969 34.667969 C 61.269531 34.667969 53.214844 38.003906 47.273438 43.941406 C 41.335938 49.878906 38 57.933594 38 66.332031 C 38 74.730469 41.335938 82.785156 47.273438 88.726562 C 53.214844 94.664062 61.269531 98 69.667969 98 C 78.066406 98 86.121094 94.664062 92.058594 88.726562 C 97.996094 82.785156 101.332031 74.730469 101.332031 66.332031 Z M 94.667969 66.332031 C 94.667969 72.964844 92.03125 79.324219 87.34375 84.011719 C 82.65625 88.699219 76.296875 91.332031 69.667969 91.332031 C 63.035156 91.332031 56.675781 88.699219 51.988281 84.011719 C 47.300781 79.324219 44.667969 72.964844 44.667969 66.332031 C 44.667969 59.703125 47.300781 53.34375 51.988281 48.65625 C 56.675781 43.96875 63.035156 41.332031 69.667969 41.332031 C 76.296875 41.332031 82.65625 43.96875 87.34375 48.65625 C 92.03125 53.34375 94.667969 59.703125 94.667969 66.332031 Z M 94.667969 66.332031 "/>
</g>
</g>
<g clip-path="url(#clip39)" clip-rule="nonzero">
<g clip-path="url(#clip40)" clip-rule="evenodd">
<path style="fill:none;stroke-width:4;stroke-linecap:round;stroke-linejoin:round;stroke:rgb(100%,100%,100%);stroke-opacity:1;stroke-miterlimit:10;" d="M 98.332031 63.332031 C 98.332031 54.933594 94.996094 46.878906 89.058594 40.941406 C 83.121094 35.003906 75.066406 31.667969 66.667969 31.667969 C 58.269531 31.667969 50.214844 35.003906 44.273438 40.941406 C 38.335938 46.878906 35 54.933594 35 63.332031 C 35 71.730469 38.335938 79.785156 44.273438 85.726562 C 50.214844 91.664062 58.269531 95 66.667969 95 C 75.066406 95 83.121094 91.664062 89.058594 85.726562 C 94.996094 79.785156 98.332031 71.730469 98.332031 63.332031 " transform="matrix(1,0,0,1,3,3)"/>
</g>
</g>
<g clip-path="url(#clip41)" clip-rule="nonzero">
<g clip-path="url(#clip42)" clip-rule="evenodd">
<path style="fill:none;stroke-width:4;stroke-linecap:round;stroke-linejoin:round;stroke:rgb(100%,100%,100%);stroke-opacity:1;stroke-miterlimit:10;" d="M 91.667969 63.332031 C 91.667969 56.703125 89.03125 50.34375 84.34375 45.65625 C 79.65625 40.96875 73.296875 38.332031 66.667969 38.332031 C 60.035156 38.332031 53.675781 40.96875 48.988281 45.65625 C 44.300781 50.34375 41.667969 56.703125 41.667969 63.332031 C 41.667969 69.964844 44.300781 76.324219 48.988281 81.011719 C 53.675781 85.699219 60.035156 88.332031 66.667969 88.332031 C 73.296875 88.332031 79.65625 85.699219 84.34375 81.011719 C 89.03125 76.324219 91.667969 69.964844 91.667969 63.332031 " transform="matrix(1,0,0,1,3,3)"/>
</g>
</g>
<g clip-path="url(#clip43)" clip-rule="nonzero">
<g clip-path="url(#clip44)" clip-rule="evenodd">
<path style=" stroke:none;fill-rule:nonzero;fill:rgb(13.72549%,13.333333%,13.72549%);fill-opacity:1;" d="M 134.667969 36.332031 C 134.667969 27.933594 131.332031 19.878906 125.390625 13.941406 C 119.453125 8.003906 111.398438 4.667969 103 4.667969 C 94.601562 4.667969 86.546875 8.003906 80.609375 13.941406 C 74.667969 19.878906 71.332031 27.933594 71.332031 36.332031 C 71.332031 44.730469 74.667969 52.785156 80.609375 58.726562 C 86.546875 64.664062 94.601562 68 103 68 C 111.398438 68 119.453125 64.664062 125.390625 58.726562 C 131.332031 52.785156 134.667969 44.730469 134.667969 36.332031 Z M 128 36.332031 C 128 42.964844 125.367188 49.324219 120.675781 54.011719 C 115.988281 58.699219 109.628906 61.332031 103 61.332031 C 96.371094 61.332031 90.011719 58.699219 85.324219 54.011719 C 80.632812 49.324219 78 42.964844 78 36.332031 C 78 29.703125 80.632812 23.34375 85.324219 18.65625 C 90.011719 13.96875 96.371094 11.332031 103 11.332031 C 109.628906 11.332031 115.988281 13.96875 120.675781 18.65625 C 125.367188 23.34375 128 29.703125 128 36.332031 Z M 128 36.332031 "/>
</g>
</g>
<g clip-path="url(#clip45)" clip-rule="nonzero">
<g clip-path="url(#clip46)" clip-rule="evenodd">
<path style="fill:none;stroke-width:4;stroke-linecap:round;stroke-linejoin:round;stroke:rgb(100%,100%,100%);stroke-opacity:1;stroke-miterlimit:10;" d="M 131.667969 33.332031 C 131.667969 24.933594 128.332031 16.878906 122.390625 10.941406 C 116.453125 5.003906 108.398438 1.667969 100 1.667969 C 91.601562 1.667969 83.546875 5.003906 77.609375 10.941406 C 71.667969 16.878906 68.332031 24.933594 68.332031 33.332031 C 68.332031 41.730469 71.667969 49.785156 77.609375 55.726562 C 83.546875 61.664062 91.601562 65 100 65 C 108.398438 65 116.453125 61.664062 122.390625 55.726562 C 128.332031 49.785156 131.667969 41.730469 131.667969 33.332031 " transform="matrix(1,0,0,1,3,3)"/>
</g>
</g>
<g clip-path="url(#clip47)" clip-rule="nonzero">
<g clip-path="url(#clip48)" clip-rule="evenodd">
<path style="fill:none;stroke-width:4;stroke-linecap:round;stroke-linejoin:round;stroke:rgb(100%,100%,100%);stroke-opacity:1;stroke-miterlimit:10;" d="M 125 33.332031 C 125 26.703125 122.367188 20.34375 117.675781 15.65625 C 112.988281 10.96875 106.628906 8.332031 100 8.332031 C 93.371094 8.332031 87.011719 10.96875 82.324219 15.65625 C 77.632812 20.34375 75 26.703125 75 33.332031 C 75 39.964844 77.632812 46.324219 82.324219 51.011719 C 87.011719 55.699219 93.371094 58.332031 100 58.332031 C 106.628906 58.332031 112.988281 55.699219 117.675781 51.011719 C 122.367188 46.324219 125 39.964844 125 33.332031 " transform="matrix(1,0,0,1,3,3)"/>
</g>
</g>
<g clip-path="url(#clip49)" clip-rule="nonzero">
<g clip-path="url(#clip50)" clip-rule="evenodd">
<path style=" stroke:none;fill-rule:nonzero;fill:rgb(0%,61.568627%,34.117647%);fill-opacity:1;" d="M 168 66.332031 C 168 57.933594 164.664062 49.878906 158.726562 43.941406 C 152.785156 38.003906 144.730469 34.667969 136.332031 34.667969 C 127.933594 34.667969 119.878906 38.003906 113.941406 43.941406 C 108.003906 49.878906 104.667969 57.933594 104.667969 66.332031 C 104.667969 74.730469 108.003906 82.785156 113.941406 88.726562 C 119.878906 94.664062 127.933594 98 136.332031 98 C 144.730469 98 152.785156 94.664062 158.726562 88.726562 C 164.664062 82.785156 168 74.730469 168 66.332031 Z M 161.332031 66.332031 C 161.332031 72.964844 158.699219 79.324219 154.011719 84.011719 C 149.324219 88.699219 142.964844 91.332031 136.332031 91.332031 C 129.703125 91.332031 123.34375 88.699219 118.65625 84.011719 C 113.96875 79.324219 111.332031 72.964844 111.332031 66.332031 C 111.332031 59.703125 113.96875 53.34375 118.65625 48.65625 C 123.34375 43.96875 129.703125 41.332031 136.332031 41.332031 C 142.964844 41.332031 149.324219 43.96875 154.011719 48.65625 C 158.699219 53.34375 161.332031 59.703125 161.332031 66.332031 Z M 161.332031 66.332031 "/>
</g>
</g>
<g clip-path="url(#clip51)" clip-rule="nonzero">
<g clip-path="url(#clip52)" clip-rule="evenodd">
<path style="fill:none;stroke-width:4;stroke-linecap:round;stroke-linejoin:round;stroke:rgb(100%,100%,100%);stroke-opacity:1;stroke-miterlimit:10;" d="M 165 63.332031 C 165 54.933594 161.664062 46.878906 155.726562 40.941406 C 149.785156 35.003906 141.730469 31.667969 133.332031 31.667969 C 124.933594 31.667969 116.878906 35.003906 110.941406 40.941406 C 105.003906 46.878906 101.667969 54.933594 101.667969 63.332031 C 101.667969 71.730469 105.003906 79.785156 110.941406 85.726562 C 116.878906 91.664062 124.933594 95 133.332031 95 C 141.730469 95 149.785156 91.664062 155.726562 85.726562 C 161.664062 79.785156 165 71.730469 165 63.332031 " transform="matrix(1,0,0,1,3,3)"/>
</g>
</g>
<g clip-path="url(#clip53)" clip-rule="nonzero">
<g clip-path="url(#clip54)" clip-rule="evenodd">
<path style="fill:none;stroke-width:4;stroke-linecap:round;stroke-linejoin:round;stroke:rgb(100%,100%,100%);stroke-opacity:1;stroke-miterlimit:10;" d="M 158.332031 63.332031 C 158.332031 56.703125 155.699219 50.34375 151.011719 45.65625 C 146.324219 40.96875 139.964844 38.332031 133.332031 38.332031 C 126.703125 38.332031 120.34375 40.96875 115.65625 45.65625 C 110.96875 50.34375 108.332031 56.703125 108.332031 63.332031 C 108.332031 69.964844 110.96875 76.324219 115.65625 81.011719 C 120.34375 85.699219 126.703125 88.332031 133.332031 88.332031 C 139.964844 88.332031 146.324219 85.699219 151.011719 81.011719 C 155.699219 76.324219 158.332031 69.964844 158.332031 63.332031 " transform="matrix(1,0,0,1,3,3)"/>
</g>
</g>
<g clip-path="url(#clip55)" clip-rule="nonzero">
<g clip-path="url(#clip56)" clip-rule="evenodd">
<path style=" stroke:none;fill-rule:nonzero;fill:rgb(93.333333%,19.607843%,30.588235%);fill-opacity:1;" d="M 201.332031 36.332031 C 201.332031 27.933594 197.996094 19.878906 192.058594 13.941406 C 186.121094 8.003906 178.066406 4.667969 169.667969 4.667969 C 161.269531 4.667969 153.214844 8.003906 147.273438 13.941406 C 141.335938 19.878906 138 27.933594 138 36.332031 C 138 44.730469 141.335938 52.785156 147.273438 58.726562 C 153.214844 64.664062 161.269531 68 169.667969 68 C 178.066406 68 186.121094 64.664062 192.058594 58.726562 C 197.996094 52.785156 201.332031 44.730469 201.332031 36.332031 Z M 194.667969 36.332031 C 194.667969 42.964844 192.03125 49.324219 187.34375 54.011719 C 182.65625 58.699219 176.296875 61.332031 169.667969 61.332031 C 163.035156 61.332031 156.675781 58.699219 151.988281 54.011719 C 147.300781 49.324219 144.667969 42.964844 144.667969 36.332031 C 144.667969 29.703125 147.300781 23.34375 151.988281 18.65625 C 156.675781 13.96875 163.035156 11.332031 169.667969 11.332031 C 176.296875 11.332031 182.65625 13.96875 187.34375 18.65625 C 192.03125 23.34375 194.667969 29.703125 194.667969 36.332031 Z M 194.667969 36.332031 "/>
</g>
</g>
<g clip-path="url(#clip57)" clip-rule="nonzero">
<g clip-path="url(#clip58)" clip-rule="evenodd">
<path style="fill:none;stroke-width:4;stroke-linecap:round;stroke-linejoin:round;stroke:rgb(100%,100%,100%);stroke-opacity:1;stroke-miterlimit:10;" d="M 198.332031 33.332031 C 198.332031 24.933594 194.996094 16.878906 189.058594 10.941406 C 183.121094 5.003906 175.066406 1.667969 166.667969 1.667969 C 158.269531 1.667969 150.214844 5.003906 144.273438 10.941406 C 138.335938 16.878906 135 24.933594 135 33.332031 C 135 41.730469 138.335938 49.785156 144.273438 55.726562 C 150.214844 61.664062 158.269531 65 166.667969 65 C 175.066406 65 183.121094 61.664062 189.058594 55.726562 C 194.996094 49.785156 198.332031 41.730469 198.332031 33.332031 " transform="matrix(1,0,0,1,3,3)"/>
</g>
</g>
<g clip-path="url(#clip59)" clip-rule="nonzero">
<g clip-path="url(#clip60)" clip-rule="evenodd">
<path style="fill:none;stroke-width:4;stroke-linecap:round;stroke-linejoin:round;stroke:rgb(100%,100%,100%);stroke-opacity:1;stroke-miterlimit:10;" d="M 191.667969 33.332031 C 191.667969 26.703125 189.03125 20.34375 184.34375 15.65625 C 179.65625 10.96875 173.296875 8.332031 166.667969 8.332031 C 160.035156 8.332031 153.675781 10.96875 148.988281 15.65625 C 144.300781 20.34375 141.667969 26.703125 141.667969 33.332031 C 141.667969 39.964844 144.300781 46.324219 148.988281 51.011719 C 153.675781 55.699219 160.035156 58.332031 166.667969 58.332031 C 173.296875 58.332031 179.65625 55.699219 184.34375 51.011719 C 189.03125 46.324219 191.667969 39.964844 191.667969 33.332031 " transform="matrix(1,0,0,1,3,3)"/>
</g>
</g>
</g>
</svg>
