<?xml version="1.0" encoding="UTF-8"?>
<svg xmlns="http://www.w3.org/2000/svg" xmlns:xlink="http://www.w3.org/1999/xlink" width="106" height="106" viewBox="0 0 106 106" version="1.1">
<g id="surface5819">
<path style="fill:none;stroke-width:4;stroke-linecap:round;stroke-linejoin:round;stroke:rgb(0%,0%,0%);stroke-opacity:1;stroke-miterlimit:10;" d="M 50 35.910156 C 52.449219 33.574219 55.707031 32.273438 59.089844 32.273438 C 65.914062 32.273438 71.589844 37.582031 71.589844 44.316406 C 71.589844 56.921875 60.601562 65.535156 50 72.726562 C 39.398438 65.535156 28.410156 56.921875 28.410156 44.316406 C 28.410156 37.582031 34.085938 32.273438 40.910156 32.273438 C 44.292969 32.273438 47.550781 33.574219 50 35.910156 " transform="matrix(1,0,0,1,3,3)"/>
<path style="fill:none;stroke-width:4;stroke-linecap:round;stroke-linejoin:round;stroke:rgb(100%,0%,0%);stroke-opacity:1;stroke-miterlimit:10;" d="M 72.726562 64.089844 C 70.277344 66.425781 67.019531 67.726562 63.636719 67.726562 C 56.8125 67.726562 51.136719 62.417969 51.136719 55.683594 C 51.136719 43.078125 62.125 34.464844 72.726562 27.273438 C 83.328125 34.464844 94.316406 43.078125 94.316406 55.683594 C 94.316406 62.417969 88.640625 67.726562 81.816406 67.726562 C 78.433594 67.726562 75.179688 66.425781 72.726562 64.089844 " transform="matrix(1,0,0,1,3,3)"/>
<path style="fill:none;stroke-width:4;stroke-linecap:round;stroke-linejoin:round;stroke:rgb(100%,0%,0%);stroke-opacity:1;stroke-miterlimit:10;" d="M 61.363281 50 L 61.363281 50 " transform="matrix(1,0,0,1,3,3)"/>
<path style="fill:none;stroke-width:4;stroke-linecap:round;stroke-linejoin:round;stroke:rgb(0%,0%,100%);stroke-opacity:1;stroke-miterlimit:10;" d="M 47.273438 61.363281 C 44.9375 58.914062 43.636719 55.65625 43.636719 52.273438 C 43.636719 45.449219 48.945312 39.773438 55.683594 39.773438 C 68.285156 39.773438 76.898438 50.761719 84.089844 61.363281 C 76.898438 71.964844 68.285156 82.953125 55.683594 82.953125 C 48.945312 82.953125 43.636719 77.277344 43.636719 70.453125 C 43.636719 67.070312 44.9375 63.816406 47.273438 61.363281 " transform="matrix(1,0,0,1,3,3)"/>
<path style="fill:none;stroke-width:4;stroke-linecap:round;stroke-linejoin:round;stroke:rgb(0%,0%,100%);stroke-opacity:1;stroke-miterlimit:10;" d="M 61.363281 50 L 61.363281 50 " transform="matrix(1,0,0,1,3,3)"/>
</g>
</svg>
