<?xml version="1.0" encoding="UTF-8"?>
<svg xmlns="http://www.w3.org/2000/svg" xmlns:xlink="http://www.w3.org/1999/xlink" width="106" height="106" viewBox="0 0 106 106" version="1.1">
<g id="surface5783">
<path style="fill:none;stroke-width:4;stroke-linecap:round;stroke-linejoin:round;stroke:rgb(0%,0%,0%);stroke-opacity:1;stroke-miterlimit:10;" d="M 50 21.816406 C 54.902344 17.148438 61.414062 14.546875 68.183594 14.546875 C 81.828125 14.546875 93.183594 25.164062 93.183594 38.636719 C 93.183594 63.84375 71.203125 81.074219 50 95.453125 C 28.796875 81.074219 6.816406 63.84375 6.816406 38.636719 C 6.816406 25.164062 18.171875 14.546875 31.816406 14.546875 C 38.585938 14.546875 45.097656 17.148438 50 21.816406 " transform="matrix(1,0,0,1,3,3)"/>
<path style="fill:none;stroke-width:4;stroke-linecap:round;stroke-linejoin:round;stroke:rgb(100%,0%,0%);stroke-opacity:1;stroke-miterlimit:10;" d="M 50 35.910156 C 54.902344 33.574219 61.414062 32.273438 68.183594 32.273438 C 81.828125 32.273438 93.183594 37.582031 93.183594 44.316406 C 93.183594 56.921875 71.203125 65.535156 50 72.726562 C 28.796875 65.535156 6.816406 56.921875 6.816406 44.316406 C 6.816406 37.582031 18.171875 32.273438 31.816406 32.273438 C 38.585938 32.273438 45.097656 33.574219 50 35.910156 " transform="matrix(1,0,0,1,3,3)"/>
</g>
</svg>
