<?xml version="1.0" encoding="UTF-8"?>
<svg xmlns="http://www.w3.org/2000/svg" xmlns:xlink="http://www.w3.org/1999/xlink" width="206" height="106" viewBox="0 0 206 106" version="1.1">
<g id="surface5854">
<path style=" stroke:none;fill-rule:nonzero;fill:rgb(0%,0%,0%);fill-opacity:1;" d="M 98.453125 53 C 98.453125 40.945312 93.664062 29.382812 85.140625 20.859375 C 76.617188 12.335938 65.054688 7.546875 53 7.546875 C 40.945312 7.546875 29.382812 12.335938 20.859375 20.859375 C 12.335938 29.382812 7.546875 40.945312 7.546875 53 C 7.546875 65.054688 12.335938 76.617188 20.859375 85.140625 C 29.382812 93.664062 40.945312 98.453125 53 98.453125 C 65.054688 98.453125 76.617188 93.664062 85.140625 85.140625 C 93.664062 76.617188 98.453125 65.054688 98.453125 53 Z M 98.453125 53 "/>
<path style=" stroke:none;fill-rule:nonzero;fill:rgb(0%,0%,0%);fill-opacity:1;" d="M 198.453125 53 C 198.453125 65.054688 193.664062 76.617188 185.140625 85.140625 C 176.617188 93.664062 165.054688 98.453125 153 98.453125 C 140.945312 98.453125 129.382812 93.664062 120.859375 85.140625 C 112.335938 76.617188 107.546875 65.054688 107.546875 53 C 107.546875 40.945312 112.335938 29.382812 120.859375 20.859375 C 129.382812 12.335938 140.945312 7.546875 153 7.546875 C 165.054688 7.546875 176.617188 12.335938 185.140625 20.859375 C 193.664062 29.382812 198.453125 40.945312 198.453125 53 Z M 198.453125 53 "/>
</g>
</svg>
