<?xml version="1.0" encoding="UTF-8"?>
<svg xmlns="http://www.w3.org/2000/svg" xmlns:xlink="http://www.w3.org/1999/xlink" width="106" height="106" viewBox="0 0 106 106" version="1.1">
<g id="surface5789">
<path style="fill:none;stroke-width:4;stroke-linecap:round;stroke-linejoin:round;stroke:rgb(0%,0%,0%);stroke-opacity:1;stroke-miterlimit:10;" d="M 50 35.910156 C 52.449219 33.574219 55.707031 32.273438 59.089844 32.273438 C 65.914062 32.273438 71.589844 37.582031 71.589844 44.316406 C 71.589844 56.921875 60.601562 65.535156 50 72.726562 C 39.398438 65.535156 28.410156 56.921875 28.410156 44.316406 C 28.410156 37.582031 34.085938 32.273438 40.910156 32.273438 C 44.292969 32.273438 47.550781 33.574219 50 35.910156 " transform="matrix(1,0,0,1,3,3)"/>
<path style="fill:none;stroke-width:4;stroke-linecap:round;stroke-linejoin:round;stroke:rgb(100%,0%,0%);stroke-opacity:1;stroke-miterlimit:10;" d="M 72.726562 35.910156 C 75.179688 33.574219 78.433594 32.273438 81.816406 32.273438 C 88.640625 32.273438 94.316406 37.582031 94.316406 44.316406 C 94.316406 56.921875 83.328125 65.535156 72.726562 72.726562 C 62.125 65.535156 51.136719 56.921875 51.136719 44.316406 C 51.136719 37.582031 56.8125 32.273438 63.636719 32.273438 C 67.019531 32.273438 70.277344 33.574219 72.726562 35.910156 " transform="matrix(1,0,0,1,3,3)"/>
<path style="fill:none;stroke-width:4;stroke-linecap:round;stroke-linejoin:round;stroke:rgb(0%,0%,100%);stroke-opacity:1;stroke-miterlimit:10;" d="M 50 13.183594 C 52.449219 10.847656 55.707031 9.546875 59.089844 9.546875 C 65.914062 9.546875 71.589844 14.855469 71.589844 21.589844 C 71.589844 34.195312 60.601562 42.808594 50 50 C 39.398438 42.808594 28.410156 34.195312 28.410156 21.589844 C 28.410156 14.855469 34.085938 9.546875 40.910156 9.546875 C 44.292969 9.546875 47.550781 10.847656 50 13.183594 " transform="matrix(1,0,0,1,3,3)"/>
</g>
</svg>
