<?xml version="1.0" encoding="UTF-8"?>
<svg xmlns="http://www.w3.org/2000/svg" xmlns:xlink="http://www.w3.org/1999/xlink" width="56" height="56" viewBox="0 0 56 56" version="1.1">
<g id="surface5896">
<path style="fill:none;stroke-width:1;stroke-linecap:round;stroke-linejoin:round;stroke:rgb(0%,0%,0%);stroke-opacity:1;stroke-miterlimit:10;" d="M 8.332031 41.667969 C 16.667969 30.554688 25 19.445312 33.332031 8.332031 " transform="matrix(1,0,0,1,3,3)"/>
<path style="fill:none;stroke-width:1;stroke-linecap:round;stroke-linejoin:round;stroke:rgb(0%,0%,0%);stroke-opacity:1;stroke-miterlimit:10;" d="M 31.433594 15.746094 C 30.820312 14.949219 30.179688 14.175781 29.515625 13.425781 C 28.605469 12.996094 27.683594 12.597656 26.746094 12.234375 C 29.152344 11.328125 31.382812 10.007812 33.332031 8.332031 C 32.273438 10.675781 31.628906 13.183594 31.433594 15.746094 " transform="matrix(1,0,0,1,3,3)"/>
<path style=" stroke:none;fill-rule:nonzero;fill:rgb(0%,0%,0%);fill-opacity:1;" d="M 34.433594 18.746094 C 33.820312 17.949219 33.179688 17.175781 32.515625 16.425781 C 31.605469 15.996094 30.683594 15.597656 29.746094 15.234375 C 32.152344 14.328125 34.382812 13.007812 36.332031 11.332031 C 35.273438 13.675781 34.628906 16.183594 34.433594 18.746094 Z M 34.433594 18.746094 "/>
</g>
</svg>
