<?xml version="1.0" encoding="UTF-8"?>
<svg xmlns="http://www.w3.org/2000/svg" xmlns:xlink="http://www.w3.org/1999/xlink" width="556" height="56" viewBox="0 0 556 56" version="1.1">
<g id="surface5447">
<path style=" stroke:none;fill-rule:nonzero;fill:rgb(100%,0%,0%);fill-opacity:1;" d="M 3 53 C 19.667969 53 36.332031 53 53 53 C 53 36.332031 53 19.667969 53 3 C 36.332031 3 19.667969 3 3 3 C 3 19.667969 3 36.332031 3 53 Z M 3 53 "/>
<path style=" stroke:none;fill-rule:nonzero;fill:rgb(99.607843%,29.803922%,0%);fill-opacity:1;" d="M 53 53 C 69.667969 53 86.332031 53 103 53 C 103 36.332031 103 19.667969 103 3 C 86.332031 3 69.667969 3 53 3 C 53 19.667969 53 36.332031 53 53 Z M 53 53 "/>
<path style=" stroke:none;fill-rule:nonzero;fill:rgb(100%,60%,0%);fill-opacity:1;" d="M 103 53 C 119.667969 53 136.332031 53 153 53 C 153 36.332031 153 19.667969 153 3 C 136.332031 3 119.667969 3 103 3 C 103 19.667969 103 36.332031 103 53 Z M 103 53 "/>
<path style=" stroke:none;fill-rule:nonzero;fill:rgb(99.607843%,89.803922%,0%);fill-opacity:1;" d="M 153 53 C 169.667969 53 186.332031 53 203 53 C 203 36.332031 203 19.667969 203 3 C 186.332031 3 169.667969 3 153 3 C 153 19.667969 153 36.332031 153 53 Z M 153 53 "/>
<path style=" stroke:none;fill-rule:nonzero;fill:rgb(80%,80%,20%);fill-opacity:1;" d="M 203 53 C 219.667969 53 236.332031 53 253 53 C 253 36.332031 253 19.667969 253 3 C 236.332031 3 219.667969 3 203 3 C 203 19.667969 203 36.332031 203 53 Z M 203 53 "/>
<path style=" stroke:none;fill-rule:nonzero;fill:rgb(49.803922%,49.803922%,49.803922%);fill-opacity:1;" d="M 253 53 C 269.667969 53 286.332031 53 303 53 C 303 36.332031 303 19.667969 303 3 C 286.332031 3 269.667969 3 253 3 C 253 19.667969 253 36.332031 253 53 Z M 253 53 "/>
<path style=" stroke:none;fill-rule:nonzero;fill:rgb(20%,20%,80%);fill-opacity:1;" d="M 303 53 C 319.667969 53 336.332031 53 353 53 C 353 36.332031 353 19.667969 353 3 C 336.332031 3 319.667969 3 303 3 C 303 19.667969 303 36.332031 303 53 Z M 303 53 "/>
<path style=" stroke:none;fill-rule:nonzero;fill:rgb(0%,9.803922%,89.803922%);fill-opacity:1;" d="M 353 53 C 369.667969 53 386.332031 53 403 53 C 403 36.332031 403 19.667969 403 3 C 386.332031 3 369.667969 3 353 3 C 353 19.667969 353 36.332031 353 53 Z M 353 53 "/>
<path style=" stroke:none;fill-rule:nonzero;fill:rgb(0%,40%,60%);fill-opacity:1;" d="M 403 53 C 419.667969 53 436.332031 53 453 53 C 453 36.332031 453 19.667969 453 3 C 436.332031 3 419.667969 3 403 3 C 403 19.667969 403 36.332031 403 53 Z M 403 53 "/>
<path style=" stroke:none;fill-rule:nonzero;fill:rgb(0%,69.803922%,29.803922%);fill-opacity:1;" d="M 453 53 C 469.667969 53 486.332031 53 503 53 C 503 36.332031 503 19.667969 503 3 C 486.332031 3 469.667969 3 453 3 C 453 19.667969 453 36.332031 453 53 Z M 453 53 "/>
<path style=" stroke:none;fill-rule:nonzero;fill:rgb(0%,100%,0%);fill-opacity:1;" d="M 503 53 C 519.667969 53 536.332031 53 553 53 C 553 36.332031 553 19.667969 553 3 C 536.332031 3 519.667969 3 503 3 C 503 19.667969 503 36.332031 503 53 Z M 503 53 "/>
</g>
</svg>
