<?xml version="1.0" encoding="UTF-8"?>
<svg xmlns="http://www.w3.org/2000/svg" xmlns:xlink="http://www.w3.org/1999/xlink" width="206" height="106" viewBox="0 0 206 106" version="1.1">
<g id="surface5872">
<path style=" stroke:none;fill-rule:nonzero;fill:rgb(0%,0%,0%);fill-opacity:1;" d="M 98.453125 53 C 98.453125 40.945312 93.664062 29.382812 85.140625 20.859375 C 76.617188 12.335938 65.054688 7.546875 53 7.546875 C 40.945312 7.546875 29.382812 12.335938 20.859375 20.859375 C 12.335938 29.382812 7.546875 40.945312 7.546875 53 C 7.546875 65.054688 12.335938 76.617188 20.859375 85.140625 C 29.382812 93.664062 40.945312 98.453125 53 98.453125 C 65.054688 98.453125 76.617188 93.664062 85.140625 85.140625 C 93.664062 76.617188 98.453125 65.054688 98.453125 53 Z M 87.089844 53 C 87.089844 62.042969 83.5 70.710938 77.105469 77.105469 C 70.710938 83.5 62.042969 87.089844 53 87.089844 C 43.957031 87.089844 35.289062 83.5 28.894531 77.105469 C 22.5 70.710938 18.910156 62.042969 18.910156 53 C 18.910156 43.957031 22.5 35.289062 28.894531 28.894531 C 35.289062 22.5 43.957031 18.910156 53 18.910156 C 62.042969 18.910156 70.710938 22.5 77.105469 28.894531 C 83.5 35.289062 87.089844 43.957031 87.089844 53 Z M 75.726562 53 C 75.726562 46.972656 73.332031 41.191406 69.070312 36.929688 C 64.808594 32.667969 59.027344 30.273438 53 30.273438 C 46.972656 30.273438 41.191406 32.667969 36.929688 36.929688 C 32.667969 41.191406 30.273438 46.972656 30.273438 53 C 30.273438 59.027344 32.667969 64.808594 36.929688 69.070312 C 41.191406 73.332031 46.972656 75.726562 53 75.726562 C 59.027344 75.726562 64.808594 73.332031 69.070312 69.070312 C 73.332031 64.808594 75.726562 59.027344 75.726562 53 Z M 64.363281 53 C 64.363281 56.015625 63.167969 58.902344 61.035156 61.035156 C 58.902344 63.167969 56.015625 64.363281 53 64.363281 C 49.984375 64.363281 47.097656 63.167969 44.964844 61.035156 C 42.832031 58.902344 41.636719 56.015625 41.636719 53 C 41.636719 49.984375 42.832031 47.097656 44.964844 44.964844 C 47.097656 42.832031 49.984375 41.636719 53 41.636719 C 56.015625 41.636719 58.902344 42.832031 61.035156 44.964844 C 63.167969 47.097656 64.363281 49.984375 64.363281 53 Z M 64.363281 53 "/>
<path style=" stroke:none;fill-rule:nonzero;fill:rgb(0%,0%,0%);fill-opacity:1;" d="M 198.453125 53 C 198.453125 65.054688 193.664062 76.617188 185.140625 85.140625 C 176.617188 93.664062 165.054688 98.453125 153 98.453125 C 140.945312 98.453125 129.382812 93.664062 120.859375 85.140625 C 112.335938 76.617188 107.546875 65.054688 107.546875 53 C 107.546875 40.945312 112.335938 29.382812 120.859375 20.859375 C 129.382812 12.335938 140.945312 7.546875 153 7.546875 C 165.054688 7.546875 176.617188 12.335938 185.140625 20.859375 C 193.664062 29.382812 198.453125 40.945312 198.453125 53 Z M 187.089844 53 C 187.089844 43.957031 183.5 35.289062 177.105469 28.894531 C 170.710938 22.5 162.042969 18.910156 153 18.910156 C 143.957031 18.910156 135.289062 22.5 128.894531 28.894531 C 122.5 35.289062 118.910156 43.957031 118.910156 53 C 118.910156 62.042969 122.5 70.710938 128.894531 77.105469 C 135.289062 83.5 143.957031 87.089844 153 87.089844 C 162.042969 87.089844 170.710938 83.5 177.105469 77.105469 C 183.5 70.710938 187.089844 62.042969 187.089844 53 Z M 175.726562 53 C 175.726562 59.027344 173.332031 64.808594 169.070312 69.070312 C 164.808594 73.332031 159.027344 75.726562 153 75.726562 C 146.972656 75.726562 141.191406 73.332031 136.929688 69.070312 C 132.667969 64.808594 130.273438 59.027344 130.273438 53 C 130.273438 46.972656 132.667969 41.191406 136.929688 36.929688 C 141.191406 32.667969 146.972656 30.273438 153 30.273438 C 159.027344 30.273438 164.808594 32.667969 169.070312 36.929688 C 173.332031 41.191406 175.726562 46.972656 175.726562 53 Z M 164.363281 53 C 164.363281 49.984375 163.167969 47.097656 161.035156 44.964844 C 158.902344 42.832031 156.015625 41.636719 153 41.636719 C 149.984375 41.636719 147.097656 42.832031 144.964844 44.964844 C 142.832031 47.097656 141.636719 49.984375 141.636719 53 C 141.636719 56.015625 142.832031 58.902344 144.964844 61.035156 C 147.097656 63.167969 149.984375 64.363281 153 64.363281 C 156.015625 64.363281 158.902344 63.167969 161.035156 61.035156 C 163.167969 58.902344 164.363281 56.015625 164.363281 53 Z M 164.363281 53 "/>
</g>
</svg>
